<?xml version="1.0" standalone="no"?>
<!DOCTYPE svg PUBLIC "-//W3C//DTD SVG 1.1//EN" "http://www.w3.org/Graphics/SVG/1.1/DTD/svg11.dtd">
<svg width="62mm" height="51.076997756957994mm" viewBox="-48 22.718999862670895 62 51.076997756957994"
	xmlns="http://www.w3.org/2000/svg" version="1.1">
	<title>svgOutput</title>
	<desc>made with tinkercad</desc>
	<path
		d="M 8.522000312805176 24.39200019836425 L 8.664948463439941 24.57600021362304 L 8.717000007629395 24.642999649047844 L 8.932999610900879 24.962999343872063 L 9.164999961853027 25.343000411987298 L 9.406999588012695 25.774000167846673 L 9.656000137329102 26.2490005493164 L 9.906999588012695 26.759000778198235 L 10.156000137329102 27.295000076293938 L 10.397000312805176 27.85000038146972 L 10.626999855041504 28.41399955749511 L 11.307000160217285 30.294000625610344 L 11.87399959564209 32.18199920654296 L 12.014305114746094 32.76800155639648 L 12.32699966430664 34.07400131225585 L 12.664999961853027 35.969001770019524 L 12.890000343322754 37.86299896240234 L 13 39.75500106811523 L 12.994999885559082 41.64199829101562 L 12.87600040435791 43.52099990844726 L 12.640000343322754 45.38999938964843 L 12.289999961853027 47.24599838256835 L 12.218000411987305 47.5610008239746 L 12.13599967956543 47.89699935913085 L 12.045999526977539 48.247001647949205 L 11.949000358581543 48.60400009155272 L 11.847999572753906 48.958000183105455 L 11.79047679901123 49.15200042724608 L 11.746000289916992 49.30199813842772 L 11.645000457763672 49.629001617431626 L 11.54699993133545 49.93000030517577 L 11.454000473022461 50.19800186157225 L 11.369000434875488 50.42499923706053 L 11.211999893188477 50.79299926757811 L 11.045000076293945 51.11700057983397 L 10.992287635803223 51.20000076293944 L 10.86400032043457 51.40200042724608 L 10.666000366210938 51.64899826049803 L 10.446000099182129 51.86299896240233 L 10.199000358581543 52.048000335693345 L 9.92300033569336 52.20500183105467 L 9.61299991607666 52.340000152587876 L 9.265000343322754 52.45500183105467 L 8.875 52.55400085449217 L 8.609999656677246 52.59999847412108 L 8.267000198364258 52.638000488281236 L 8.192000389099121 52.643581390380845 L 7.863999843597412 52.66799926757811 L 7.414999961853027 52.688999176025376 L 6.936999797821045 52.70100021362303 L 6.447999954223633 52.703998565673814 L 5.961999893188477 52.69800186157225 L 5.497000217437744 52.68099975585936 L 5.067999839782715 52.65499877929686 L 4.692999839782715 52.618000030517564 L 4.360000133514404 52.576999664306626 L 4.0960001945495605 52.54053115844725 L 4.0269999504089355 52.530998229980455 L 3.693000078201294 52.47900009155272 L 3.3589999675750732 52.423000335693345 L 3.0250000953674316 52.36100006103514 L 2.691999912261963 52.2949981689453 L 2.3589999675750732 52.223999023437486 L 2.0480000972747803 52.15374374389647 L 2.0269999504089355 52.14899826049803 L 1.6959999799728394 52.06900024414061 L 1.3669999837875366 51.98500061035155 L 1.2339999675750732 51.949001312255845 L 1.1059999465942383 51.91600036621092 L 0.9860000014305115 51.88499832153319 L 0.966869592666626 51.88013076782225 L 0.8759999871253967 51.8569984436035 L 0.7770000100135803 51.83200073242186 L 0.6919999718666077 51.81200027465819 L 0.6230000257492065 51.79600143432616 L 0.5699999928474426 51.784999847412095 L 0.5360000133514404 51.77999877929686 L 0.5230000019073486 51.77999877929686 L 0.5270096659660339 51.786464691162095 L 0.5720000267028809 51.859001159667955 L 0.7289999723434448 52.06299972534178 L 0.8568681478500366 52.223999023437486 L 0.9760000109672546 52.37400054931639 L 1.2999999523162842 52.77299880981444 L 1.6829999685287476 53.241001129150376 L 1.6887949705123901 53.2480010986328 L 2.1110000610351562 53.757999420166 L 2.566999912261963 54.30599975585936 L 3.0360000133514404 54.86500167846678 L 3.503000020980835 55.41699981689452 L 3.9509999752044678 55.94300079345702 L 4.192999839782715 56.22600173950194 L 4.426000118255615 56.49499893188475 L 4.660999774932861 56.76499938964842 L 4.909999847412109 57.04999923706053 L 5.168306827545166 57.34400177001952 L 5.184999942779541 57.36299896240233 L 5.499000072479248 57.71799850463866 L 5.86299991607666 58.129001617431626 L 5.962302207946777 58.24109268188475 L 6.289999961853027 58.61100006103514 L 6.407255172729492 58.743000030517564 L 6.790999889373779 59.17499923706053 L 7.377999782562256 59.83800125122069 L 7.752999782562256 60.26100158691405 L 7.880617618560791 60.40649795532225 L 8.116999626159668 60.675998687744126 L 8.192000389099121 60.762207031249986 L 8.46500015258789 61.07600021362303 L 8.779058456420898 61.43999862670897 L 8.791999816894531 61.45500183105467 L 9.092000007629395 61.80599975585936 L 9.361000061035156 62.124999999999986 L 9.593999862670898 62.40399932861327 L 9.78499984741211 62.638000488281236 L 9.928000450134277 62.8209991455078 L 10.020000457763672 62.9459991455078 L 10.079000473022461 63.034999847412095 L 10.128000259399414 63.111999511718736 L 10.166000366210938 63.181999206542955 L 10.196999549865723 63.245998382568345 L 10.218999862670898 63.310001373291 L 10.234999656677246 63.37599945068358 L 10.246000289916992 63.44800186157225 L 10.248963356018066 63.48799896240233 L 10.251999855041504 63.52899932861327 L 10.255000114440918 63.622001647949205 L 10.255999565124512 63.7319984436035 L 10.255999565124512 63.848999023437486 L 10.253000259399414 63.94400024414061 L 10.248000144958496 64.0230026245117 L 10.239999771118164 64.07027435302733 L 10.237000465393066 64.08799743652342 L 10.220999717712402 64.1439971923828 L 10.196999549865723 64.19400024414061 L 10.163000106811523 64.2419967651367 L 10.119000434875488 64.29299926757811 L 10.062999725341797 64.34999847412108 L 9.994000434875488 64.41600036621092 L 9.840999603271484 64.53700256347655 L 9.654000282287598 64.64700317382811 L 9.430999755859375 64.74500274658202 L 9.168000221252441 64.83399963378905 L 8.86299991607666 64.91400146484374 L 8.513999938964844 64.98400115966795 L 8.192000389099121 65.03441619873045 L 8.118000030517578 65.04599761962889 L 7.671999931335449 65.10099792480467 L 7.175000190734863 65.1490020751953 L 6.624000072479248 65.19000244140624 L 6.249000072479248 65.20899963378905 L 5.8520002365112305 65.21900177001952 L 5.431000232696533 65.2210006713867 L 4.984000205993652 65.21399688720702 L 4.507999897003174 65.19799804687499 L 4.0960001945495605 65.17764282226561 L 4.001999855041504 65.17299652099608 L 3.4630000591278076 65.13999938964842 L 2.8889999389648438 65.09799957275389 L 2.2790000438690186 65.04599761962889 L 2.0480000972747803 65.02428436279295 L 1.6299999952316284 64.98500061035155 L 1.3930000066757202 64.96199798583983 L 1.1740000247955322 64.94300079345702 L 0.9750000238418579 64.92600250244139 L 0.7960000038146973 64.91400146484374 L 0.6399999856948853 64.90499877929686 L 0.5070000290870667 64.8990020751953 L 0.39899998903274536 64.8980026245117 L 0.31700000166893005 64.90000152587889 L 0.2619999945163727 64.90599822998045 L 0.23499999940395355 64.91500091552733 L 0.21699999272823334 64.95099639892577 L 0.18299999833106995 65.03500366210936 L 0.1340000033378601 65.16400146484374 L 0.07199999690055847 65.33399963378905 L 0.0000682926838635467 65.53600311279295 L 0 65.53619384765624 L -0.0010000000474974513 65.53900146484374 L -0.08500000089406967 65.77700042724608 L -0.17599999904632568 66.04100036621092 L -0.2750000059604645 66.32900238037108 L -0.3790000081062317 66.63500213623045 L -0.6759999990463257 67.51499938964842 L -0.7849681377410889 67.82948303222655 L -0.8690000176429749 68.07199859619139 L -1.0609999895095825 68.6169967651367 L -1.070967197418213 68.64453887939452 L -1.1228196620941162 68.78781890869139 L -1.2510000467300415 69.14199829101561 L -1.4321515560150146 69.63200378417967 L -1.434000015258789 69.63700103759764 L -1.6059999465942383 70.09300231933592 L -1.7660000324249268 70.50199890136717 L -1.909000039100647 70.85500335693358 L -2.0309998989105225 71.14199829101561 L -2.0480000972747803 71.17820739746092 L -2.13100004196167 71.35500335693358 L -2.1989998817443848 71.48500061035155 L -2.2709999084472656 71.60900115966795 L -2.3149237632751465 71.68000030517577 L -2.3440001010894775 71.72699737548827 L -2.4179999828338623 71.83699798583983 L -2.493000030517578 71.93900299072264 L -2.566999912261963 72.03199768066405 L -2.6389999389648438 72.11399841308592 L -2.7090001106262207 72.18399810791014 L -2.7769999504089355 72.2429962158203 L -2.8399999141693115 72.28800201416014 L -2.9240000247955322 72.32900238037108 L -3.0209999084472656 72.36100006103514 L -3.072000026702881 72.37269592285155 L -3.130000114440918 72.38600158691405 L -3.246000051498413 72.40200042724608 L -3.365999937057495 72.41000366210936 L -3.4860000610351562 72.40899658203124 L -3.6019999980926514 72.40000152587889 L -3.7119998931884766 72.38300323486327 L -3.811000108718872 72.35600280761717 L -3.8959999084472656 72.3199996948242 L -4.01200008392334 72.24600219726561 L -4.0960001945495605 72.1780319213867 L -4.14300012588501 72.13999938964842 L -4.289999961853027 71.9980010986328 L -4.458000183105469 71.81600189208983 L -4.650000095367432 71.58799743652342 L -4.869999885559082 71.31099700927733 L -5.120999813079834 70.98200225830077 L -5.406000137329102 70.59400177001952 L -5.730000019073486 70.1439971923828 L -6.09499979019165 69.62799835205077 L -6.895999908447266 68.46600341796874 L -7.671000003814697 67.29599761962889 L -8.192000389099121 66.47888183593749 L -8.416999816894531 66.12599945068358 L -8.778090476989746 65.53600311279295 L -9.130000114440918 64.96099853515624 L -9.807999610900879 63.806999206542955 L -10.444999694824219 62.67200088500975 L -11.038999557495117 61.561000823974595 L -11.585000038146973 60.48099899291991 L -12.081000328063965 59.43700027465819 L -12.522000312805176 58.43700027465819 L -12.947999954223633 57.388000488281236 L -13.350000381469727 56.311000823974595 L -13.725000381469727 55.21300125122069 L -14.072999954223633 54.10200119018553 L -14.388999938964844 52.98600006103514 L -14.673999786376953 51.8730010986328 L -14.925000190734863 50.77000045776366 L -15.138999938964844 49.68399810791014 L -15.22733211517334 49.15200042724608 L -15.3149995803833 48.62400054931639 L -15.451000213623047 47.5979995727539 L -15.498000144958496 47.18500137329101 L -15.50732707977295 47.10400009155273 L -15.53600025177002 46.85499954223632 L -15.569000244140625 46.59999847412109 L -15.597999572753906 46.408000946044915 L -15.62600040435791 46.27099990844726 L -15.654999732971191 46.17800140380859 L -15.687999725341797 46.12099838256835 L -15.727999687194824 46.088001251220696 L -15.776000022888184 46.06999969482421 L -15.835000038146973 46.05699920654296 L -15.878000259399414 46.048999786376946 L -15.939000129699707 46.041999816894524 L -16.01799964904785 46.035999298095696 L -16.111000061035156 46.02999877929687 L -16.218000411987305 46.02399826049804 L -16.333999633789062 46.01900100708007 L -16.384000778198242 46.01739883422851 L -16.458999633789062 46.01499938964843 L -16.590999603271484 46.011001586914055 L -16.72599983215332 46.00799942016601 L -16.86400032043457 46.00600051879882 L -17.062000274658203 46.00400161743163 L -17.22800064086914 46.00500106811523 L -17.364999771118164 46.006999969482415 L -17.475000381469727 46.011001586914055 L -17.562000274658203 46.01800155639648 L -17.628999710083008 46.02700042724609 L -17.677000045776367 46.04000091552734 L -17.711000442504883 46.05699920654296 L -17.733999252319336 46.07699966430663 L -17.735559463500977 46.08000183105468 L -17.746999740600586 46.10200119018554 L -17.75200080871582 46.12599945068359 L -17.75508689880371 46.145557403564446 L -17.757999420166016 46.16400146484374 L -17.76300048828125 46.21400070190429 L -17.767154693603516 46.264690399169915 L -17.76799964904785 46.2750015258789 L -17.773000717163086 46.34500122070312 L -17.777000427246094 46.42300033569335 L -17.780000686645508 46.50799942016601 L -17.783000946044922 46.597000122070305 L -17.783491134643555 46.62012863159179 L -17.78499984741211 46.69100189208984 L -17.78499984741211 46.785999298095696 L -17.785999298095703 46.89599990844726 L -17.790000915527344 47.02999877929687 L -17.79292106628418 47.10400009155273 L -17.79599952697754 47.18199920654296 L -17.804000854492188 47.351001739501946 L -17.81399917602539 47.53200149536132 L -17.82404899597168 47.70467376708984 L -17.825000762939453 47.72100067138671 L -17.83799934387207 47.91500091552734 L -17.85099983215332 48.11100006103514 L -17.865999221801758 48.30500030517577 L -17.881000518798828 48.493000030517564 L -17.955528259277344 49.15200042724608 L -18.10300064086914 50.45600128173827 L -18.422000885009766 52.39099884033202 L -18.843000411987305 54.310001373291 L -19.371000289916992 56.22600173950194 L -20.007999420166016 58.151000976562486 L -20.760000228881836 60.096000671386705 L -21.631000518798828 62.07300186157225 L -22.625 64.09500122070311 L -23.40273666381836 65.53600311279295 L -23.746000289916992 66.17199707031249 L -24.576000213623047 67.59400177001952 L -24.99799919128418 68.31700134277342 L -25.30900001525879 68.82499694824217 L -25.615999221801758 69.31900024414061 L -25.813268661499023 69.63200378417967 L -25.916000366210938 69.7949981689453 L -26.20599937438965 70.2480010986328 L -26.483999252319336 70.6740036010742 L -26.743999481201172 71.06600189208983 L -26.985000610351562 71.4199981689453 L -27.202999114990234 71.73100280761717 L -27.395000457763672 71.99500274658202 L -27.555999755859375 72.20500183105467 L -27.695999145507812 72.35900115966795 L -27.8439998626709 72.49099731445311 L -27.99799919128418 72.60099792480467 L -28.156999588012695 72.68599700927733 L -28.316999435424805 72.7480010986328 L -28.47800064086914 72.78500366210936 L -28.636999130249023 72.79599761962889 L -28.672000885009766 72.79281616210936 L -28.791000366210938 72.78199768066405 L -28.93899917602539 72.74099731445311 L -29.077999114990234 72.67199707031249 L -29.113000869750977 72.65000152587889 L -29.150999069213867 72.6220016479492 L -29.19099998474121 72.58999633789061 L -29.233999252319336 72.55500030517577 L -29.277000427246094 72.51599884033202 L -29.320999145507812 72.47499847412108 L -29.36400032043457 72.43299865722655 L -29.405000686645508 72.39099884033202 L -29.44499969482422 72.34899902343749 L -29.481000900268555 72.30799865722655 L -29.621000289916992 72.10900115966795 L -29.79400062561035 71.81300354003905 L -29.86394500732422 71.68000030517577 L -29.996999740600586 71.42700195312499 L -30.226999282836914 70.95500183105467 L -30.481000900268555 70.40599822998045 L -30.719999313354492 69.8673858642578 L -30.756999969482422 69.78399658203124 L -30.821826934814453 69.63200378417967 L -31.049999237060547 69.0970001220703 L -31.360000610351562 68.35099792480467 L -31.68199920654297 67.55200195312499 L -32.013999938964844 66.70600128173827 L -32.470603942871094 65.53600311279295 L -32.58300018310547 65.2480010986328 L -32.768001556396484 65.2480010986328 L -32.88999938964844 65.2480010986328 L -32.95399856567383 65.24999999999999 L -33.04199981689453 65.25599670410155 L -33.150001525878906 65.26499938964842 L -33.275001525878906 65.27799987792967 L -33.41600036621094 65.29299926757811 L -33.508907318115234 65.30400085449217 L -33.56800079345703 65.31099700927733 L -33.729000091552734 65.33100128173827 L -33.89699935913086 65.35299682617186 L -34.23899841308594 65.40100097656249 L -34.83100128173828 65.48999786376952 L -35.15797424316406 65.53600311279295 L -35.356998443603516 65.56400299072264 L -35.832000732421875 65.62499999999999 L -36.27000045776367 65.6740036010742 L -36.68299865722656 65.71299743652342 L -37.0880012512207 65.7419967651367 L -37.49599838256836 65.76200103759764 L -37.92300033569336 65.77600097656249 L -38.38199996948242 65.78299713134764 L -38.88800048828125 65.78500366210936 L -39.409000396728516 65.78099822998045 L -39.86000061035156 65.7730026245117 L -40.249000549316406 65.75800323486327 L -40.584999084472656 65.73699951171874 L -40.875999450683594 65.70800018310545 L -40.959999084472656 65.69543457031249 L -41.130001068115234 65.6699981689453 L -41.35499954223633 65.62100219726561 L -41.558998107910156 65.56099700927733 L -41.624752044677734 65.53600311279295 L -41.750999450683594 65.48799896240233 L -41.9379997253418 65.40100097656249 L -42.07500076293945 65.32900238037108 L -42.19599914550781 65.25199890136717 L -42.29999923706055 65.17099761962889 L -42.388999938964844 65.08399963378905 L -42.4630012512207 64.98999786376952 L -42.52399826049805 64.88800048828124 L -42.571998596191406 64.77700042724608 L -42.60900115966797 64.65599822998045 L -42.63399887084961 64.5230026245117 L -42.64799880981445 64.37799835205077 L -42.65299987792969 64.1740036010742 L -42.62799835205078 63.97299957275389 L -42.555999755859375 63.74900054931639 L -42.42311096191406 63.48799896240233 L -42.41699981689453 63.47600173950194 L -42.194000244140625 63.124999999999986 L -41.86800003051758 62.67200088500975 L -41.42100143432617 62.08800125122069 L -40.959999084472656 61.5060577392578 L -40.90767288208008 61.43999862670897 L -40.83399963378906 61.3470001220703 L -40.09000015258789 60.423000335693345 L -39.16899871826172 59.287998199462876 L -38.80699920654297 58.841999053955064 L -38.435001373291016 58.381000518798814 L -38.058998107910156 57.912998199462876 L -37.6879997253418 57.44699859619139 L -37.60605239868164 57.34400177001952 L -37.32600021362305 56.99200057983397 L -36.981998443603516 56.55599975585936 L -36.6619987487793 56.14799880981444 L -36.37300109863281 55.776000976562486 L -36.12099838256836 55.449001312255845 L -35.91400146484375 55.175998687744126 L -35.57899856567383 54.728000640869126 L -35.25299835205078 54.28699874877928 L -34.941001892089844 53.861999511718736 L -34.652000427246094 53.462001800537095 L -34.56545639038086 53.34123611450194 L -34.49864196777344 53.2480010986328 L -34.388999938964844 53.09500122070311 L -34.1609992980957 52.77099990844725 L -33.97200012207031 52.4980010986328 L -33.83000183105469 52.284999847412095 L -33.79145050048828 52.223999023437486 L -33.73899841308594 52.14099884033202 L -33.70800018310547 52.074001312255845 L -33.71799850463867 52.069999694824205 L -33.74800109863281 52.07199859619139 L -33.79600143432617 52.08100128173827 L -33.85900115966797 52.09500122070311 L -33.9379997253418 52.11399841308592 L -34.02899932861328 52.13899993896483 L -34.13100051879883 52.16799926757811 L -34.24300003051758 52.20100021362303 L -34.31697463989258 52.223999023437486 L -34.36199951171875 52.23799896240233 L -34.487998962402344 52.27899932861327 L -34.816001892089844 52.379604339599595 L -35.277000427246094 52.52099990844725 L -36.060001373291016 52.73600006103514 L -36.83300018310547 52.92399978637694 L -36.86399841308594 52.93050384521483 L -37.590999603271484 53.083000183105455 L -38.32899856567383 53.21400070190428 L -38.56969451904297 53.2480010986328 L -39.04399871826172 53.31499862670897 L -39.73099899291992 53.38600158691405 L -40.38600158691406 53.425998687744126 L -40.959999084472656 53.434360504150376 L -41.00400161743164 53.435001373291 L -41.58000183105469 53.41099929809569 L -42.11600112915039 53.3569984436035 L -42.59199905395508 53.27099990844725 L -43.01599884033203 53.14899826049803 L -43.391998291015625 52.986999511718736 L -43.729000091552734 52.77899932861327 L -44.03099822998047 52.52099990844725 L -44.30699920654297 52.208000183105455 L -44.56100082397461 51.83499908447264 L -44.80099868774414 51.39799880981444 L -45.03300094604492 50.89099884033202 L -45.2760009765625 50.28599929809569 L -45.507999420166016 49.63999938964842 L -45.66518783569336 49.15200042724608 L -45.72800064086914 48.95700073242186 L -45.93600082397461 48.24200057983397 L -46.12900161743164 47.498001098632805 L -46.30799865722656 46.72999954223632 L -46.47100067138672 45.943000793457024 L -46.61800003051758 45.13999938964843 L -46.74599838256836 44.32600021362304 L -46.85599899291992 43.50500106811523 L -46.89500045776367 43.105998992919915 L -46.92900085449219 42.62200164794921 L -46.957000732421875 42.0719985961914 L -46.97800064086914 41.47800064086913 L -46.99057388305664 40.95999908447265 L -46.99300003051758 40.860000610351555 L -47 40.23899841308593 L -47 39.634998321533196 L -46.992000579833984 39.06900024414062 L -46.97600173950195 38.562000274658196 L -46.95199966430664 38.1339988708496 L -46.83700180053711 36.93399810791015 L -46.676998138427734 35.73199844360351 L -46.474998474121094 34.53400039672851 L -46.23099899291992 33.34600067138671 L -46.09068298339844 32.76800155639648 L -45.94599914550781 32.17200088500976 L -45.62300109863281 31.018999099731438 L -45.26300048828125 29.891000747680657 L -44.86600112915039 28.795000076293938 L -44.435001373291016 27.73600006103515 L -43.97200012207031 26.71899986267089 L -43.67300033569336 26.13299942016601 L -43.388999938964844 25.64200019836425 L -43.106998443603516 25.242000579833977 L -42.819000244140625 24.92499923706054 L -42.51100158691406 24.683000564575188 L -42.17499923706055 24.510999679565423 L -41.79899978637695 24.40099906921386 L -41.37300109863281 24.347000122070305 L -40.959999084472656 24.342760086059563 L -40.88600158691406 24.34199905395507 L -40.32699966430664 24.378000259399407 L -39.48500061035156 24.474000930786126 L -38.62799835205078 24.601999282836907 L -37.75899887084961 24.761999130249016 L -36.882999420166016 24.951999664306634 L -36.00299835205078 25.17200088500976 L -35.124000549316406 25.420999526977532 L -34.249000549316406 25.697000503540032 L -33.38399887084961 25.999999999999993 L -32.768001556396484 26.236589431762688 L -32.529998779296875 26.327999114990227 L -31.694000244140625 26.680999755859368 L -30.840999603271484 27.07399940490722 L -29.996000289916992 27.49500083923339 L -29.150999069213867 27.947999954223626 L -28.302000045776367 28.43799972534179 L -27.444000244140625 28.965999603271477 L -26.569000244140625 29.537000656127923 L -25.673999786376953 30.1550006866455 L -24.75200080871582 30.822000503540032 L -24.576000213623047 30.954875946044915 L -23.797000885009766 31.542999267578118 L -22.80500030517578 32.320999145507805 L -22.68000030517578 32.421001434326165 L -22.55900001525879 32.51699829101562 L -22.44499969482422 32.60800170898437 L -22.378620147705078 32.660110473632805 L -22.33799934387207 32.69200134277343 L -22.319740295410156 32.706306457519524 L -22.240999221801758 32.76800155639648 L -22.1560001373291 32.833999633789055 L -22.08300018310547 32.88999938964843 L -22.024999618530273 32.93399810791015 L -21.983999252319336 32.96400070190429 L -21.961000442504883 32.97900009155273 L -21.94300079345703 32.98300170898437 L -21.91699981689453 32.97999954223632 L -21.884000778198242 32.97000122070312 L -21.844999313354492 32.95299911499023 L -21.798999786376953 32.930000305175774 L -21.749000549316406 32.90100097656249 L -21.69499969482422 32.86700057983398 L -21.636999130249023 32.82799911499023 L -21.576000213623047 32.78400039672851 L -21.55500030517578 32.76800155639648 L -21.51300048828125 32.73600006103515 L -21.343000411987305 32.605998992919915 L -21.337364196777344 32.602180480957024 L -21.187999725341797 32.50099945068359 L -21.031999588012695 32.416999816894524 L -20.860000610351562 32.35200119018554 L -20.65399932861328 32.30199813842773 L -20.479999542236328 32.276069641113274 L -20.39900016784668 32.26399993896484 L -20.07699966430664 32.23600006103515 L -19.67300033569336 32.213001251220696 L -19.170000076293945 32.19400024414062 L -18.552000045776367 32.173999786376946 L -18.204999923706055 32.16500091552734 L -17.832000732421875 32.15599822998046 L -17.440000534057617 32.14899826049804 L -17.038000106811523 32.14300155639648 L -16.632999420166016 32.13800048828124 L -16.384000778198242 32.13550186157226 L -16.233999252319336 32.1339988708496 L -15.847000122070312 32.131999969482415 L -15.482000350952148 32.13100051879882 L -15.144000053405762 32.131999969482415 L -14.843000411987305 32.134998321533196 L -14.390999794006348 32.14199829101562 L -14.336000442504883 32.14305114746093 L -14.024999618530273 32.14899826049804 L -13.732999801635742 32.15599822998046 L -13.503999710083008 32.16600036621093 L -13.324999809265137 32.17800140380859 L -13.312000274658203 32.17949676513671 L -13.185999870300293 32.19400024414062 L -13.074999809265137 32.21500015258788 L -12.979999542236328 32.24300003051757 L -12.888999938964844 32.27700042724609 L -12.791000366210938 32.320999145507805 L -12.730999946594238 32.351001739501946 L -12.668999671936035 32.384998321533196 L -12.604999542236328 32.421001434326165 L -12.539999961853027 32.45999908447265 L -12.47599983215332 32.4990005493164 L -12.413999557495117 32.53900146484374 L -12.354999542236328 32.57899856567382 L -12.300000190734863 32.61800003051757 L -12.288000106811523 32.627307891845696 L -12.260483741760254 32.64864349365234 L -12.25100040435791 32.65599822998046 L -12.208999633789062 32.69200134277343 L -12.208728790283203 32.69223022460937 L -12.170999526977539 32.72399902343749 L -12.133999824523926 32.75400161743163 L -12.117103576660156 32.76800155639648 L -12.098999977111816 32.783000946044915 L -12.065999984741211 32.807998657226555 L -12.03600025177002 32.83200073242187 L -12.012374877929688 32.84862518310546 L -12.008999824523926 32.851001739501946 L -11.984999656677246 32.86800003051757 L -11.98345947265625 32.868972778320305 L -11.965999603271484 32.88000106811523 L -11.949999809265137 32.88700103759765 L -11.9399995803833 32.88999938964843 L -11.92300033569336 32.88000106811523 L -11.88599967956543 32.851001739501946 L -11.829000473022461 32.80599975585937 L -11.784257888793945 32.76800155639648 L -11.755999565124512 32.743999481201165 L -11.666999816894531 32.66899871826171 L -11.564000129699707 32.58200073242187 L -11.504446029663086 32.530349731445305 L -11.451000213623047 32.48400115966796 L -11.32699966430664 32.37699890136718 L -11.194999694824219 32.26200103759765 L -11.192955017089844 32.260208129882805 L -11.057999610900879 32.14199829101562 L -10.979059219360352 32.07470703124999 L -10.782341957092285 31.907012939453118 L -9.654999732971191 30.945999145507805 L -9.4362154006958 30.773773193359368 L -9.24523639678955 30.62343215942382 L -9.159544944763184 30.555976867675774 L -8.263999938964844 29.850999832153313 L -8.192000389099121 29.799140930175774 L -6.876999855041504 28.851999282836907 L -5.488999843597412 27.947000503540032 L -4.093999862670898 27.13100051879882 L -2.684000015258789 26.40299987792968 L -1.2549999952316284 25.75799942016601 L 0 25.270998001098626 L 0.20100000500679016 25.193000793457024 L 1.6890000104904175 24.704000473022454 L 2.159669876098633 24.57600021362304 L 3.2149999141693115 24.28899955749511 L 3.683000087738037 24.17700004577636 L 4.0960001945495605 24.08257293701171 L 4.116000175476074 24.077999114990227 L 4.519000053405762 23.99200057983398 L 4.89300012588501 23.919000625610348 L 5.242000102996826 23.85799980163574 L 5.567999839782715 23.809000015258786 L 5.875 23.770999908447262 L 6.144000053405762 23.745027542114254 L 6.164999961853027 23.743000030517575 L 6.441999912261963 23.72699928283691 L 6.706999778747559 23.71999931335449 L 6.889999866485596 23.718999862670895 L 7.045000076293945 23.718999862670895 L 7.168000221252441 23.722784042358395 L 7.175000190734863 23.722999572753903 L 7.284999847412109 23.72900009155273 L 7.380000114440918 23.73999977111816 L 7.465000152587891 23.754999160766598 L 7.544000148773193 23.775999069213864 L 7.622000217437744 23.802999496459957 L 7.703999996185303 23.837999343872067 L 7.794000148773193 23.879999160766598 L 7.853000164031982 23.90800094604492 L 7.914999961853027 23.940000534057614 L 7.978000164031982 23.97400093078613 L 8.041000366210938 24.01000022888183 L 8.104000091552734 24.04700088500976 L 8.163000106811523 24.083999633789055 L 8.192000389099121 24.102642059326165 L 8.218999862670898 24.12000083923339 L 8.269000053405762 24.1550006866455 L 8.314000129699707 24.18799972534179 L 8.350000381469727 24.21899986267089 L 8.522000312805176 24.39200019836425 z"
		fill="black" stroke="rgb(255,0,0)" stroke-width="0.001mm" />
</svg>