<?xml version="1.0" encoding="UTF-8" standalone="no"?>
<!DOCTYPE svg PUBLIC "-//W3C//DTD SVG 20010904//EN"
              "http://www.w3.org/TR/2001/REC-SVG-20010904/DTD/svg10.dtd">

<svg xmlns="http://www.w3.org/2000/svg"
     width="1158.06mm" height="868.473mm"
     viewBox="0 0 4103 3077">
  <path fill="black" stroke="black" stroke-width="1"
        d="M 3439.00,244.14
           C 3439.00,244.14 3459.00,244.14 3459.00,244.14
             3459.00,244.14 3471.00,244.14 3471.00,244.14
             3497.87,244.04 3529.70,256.18 3552.00,270.69
             3574.43,285.30 3593.53,304.77 3613.00,322.91
             3613.00,322.91 3652.00,360.96 3652.00,360.96
             3652.00,360.96 3688.99,397.00 3688.99,397.00
             3688.99,397.00 3712.00,421.00 3712.00,421.00
             3712.00,421.00 3732.96,442.00 3732.96,442.00
             3732.96,442.00 3742.01,452.00 3742.01,452.00
             3748.84,459.00 3761.01,471.21 3766.25,479.00
             3771.19,486.34 3778.64,504.30 3781.66,513.00
             3785.01,522.67 3788.98,530.68 3789.00,541.00
             3789.00,541.00 3789.00,1128.00 3789.00,1128.00
             3789.00,1128.00 3789.00,1714.00 3789.00,1714.00
             3788.98,1726.50 3783.27,1738.14 3779.86,1750.00
             3767.37,1793.39 3736.77,1836.10 3699.00,1860.92
             3685.20,1869.99 3643.60,1887.53 3626.00,1895.78
             3626.00,1895.78 3399.00,1999.31 3399.00,1999.31
             3399.00,1999.31 3178.00,2101.69 3178.00,2101.69
             3178.00,2101.69 3116.00,2130.69 3116.00,2130.69
             3116.00,2130.69 3078.00,2148.26 3078.00,2148.26
             3078.00,2148.26 2997.00,2186.31 2997.00,2186.31
             2997.00,2186.31 2886.00,2238.31 2886.00,2238.31
             2886.00,2238.31 2777.00,2289.78 2777.00,2289.78
             2777.00,2289.78 2742.00,2306.69 2742.00,2306.69
             2742.00,2306.69 2681.00,2335.74 2681.00,2335.74
             2681.00,2335.74 2639.00,2355.75 2639.00,2355.75
             2639.00,2355.75 2613.00,2368.25 2613.00,2368.25
             2608.87,2370.31 2603.51,2372.46 2600.64,2376.10
             2596.46,2381.41 2594.14,2397.84 2592.92,2405.00
             2592.92,2405.00 2582.20,2465.00 2582.20,2465.00
             2570.44,2526.28 2563.34,2588.20 2555.28,2650.00
             2551.06,2682.32 2548.33,2726.72 2534.97,2756.00
             2531.49,2763.64 2524.26,2774.39 2519.00,2781.00
             2497.48,2807.99 2472.44,2821.71 2439.00,2828.40
             2427.11,2830.78 2417.17,2832.14 2405.00,2832.00
             2386.61,2831.78 2355.45,2822.96 2339.00,2814.73
             2333.49,2811.98 2328.12,2808.41 2323.00,2805.00
             2323.00,2805.00 2296.00,2785.38 2296.00,2785.38
             2292.22,2782.59 2286.99,2778.58 2282.00,2779.43
             2277.49,2780.20 2272.34,2784.99 2269.00,2787.95
             2262.58,2793.64 2256.03,2799.34 2249.00,2804.28
             2243.29,2808.30 2231.06,2816.16 2225.00,2819.19
             2211.07,2826.16 2185.58,2833.81 2170.00,2834.00
             2170.00,2834.00 2155.00,2834.00 2155.00,2834.00
             2132.29,2833.96 2105.04,2823.76 2086.00,2811.77
             2076.31,2805.67 2067.70,2798.68 2059.00,2791.27
             2054.45,2787.39 2049.51,2782.39 2043.00,2783.23
             2036.56,2784.05 2026.09,2795.27 2021.00,2799.83
             2010.64,2809.10 1996.27,2818.06 1984.00,2824.69
             1979.78,2826.98 1962.64,2835.83 1959.00,2836.87
             1956.88,2837.07 1954.19,2837.00 1952.00,2836.87
             1952.00,2836.87 1896.00,2836.87 1896.00,2836.87
             1885.16,2836.98 1882.46,2833.84 1873.00,2829.26
             1858.91,2822.44 1845.33,2815.12 1833.00,2805.33
             1827.02,2800.59 1815.05,2787.21 1808.00,2787.21
             1802.53,2787.20 1796.14,2792.75 1792.00,2796.00
             1782.90,2803.15 1773.84,2810.45 1764.00,2816.58
             1741.47,2830.60 1702.63,2843.31 1676.00,2843.00
             1676.00,2843.00 1659.00,2841.15 1659.00,2841.15
             1619.63,2836.45 1587.16,2820.68 1562.21,2789.00
             1556.31,2781.50 1549.17,2770.75 1545.43,2762.00
             1533.54,2734.21 1529.92,2685.88 1526.83,2655.00
             1521.75,2604.14 1514.64,2553.40 1506.08,2503.00
             1506.08,2503.00 1490.12,2421.00 1490.12,2421.00
             1487.98,2411.70 1486.68,2396.70 1477.98,2391.35
             1477.98,2391.35 1440.00,2375.58 1440.00,2375.58
             1440.00,2375.58 1377.00,2351.58 1377.00,2351.58
             1377.00,2351.58 1173.00,2274.58 1173.00,2274.58
             1173.00,2274.58 821.00,2141.58 821.00,2141.58
             821.00,2141.58 555.00,2041.05 555.00,2041.05
             555.00,2041.05 408.00,1986.42 408.00,1986.42
             376.16,1974.41 343.63,1964.51 319.00,1940.00
             299.09,1920.19 284.68,1899.65 275.34,1873.00
             271.89,1863.13 269.02,1858.78 269.00,1848.00
             269.00,1848.00 269.00,1667.00 269.00,1667.00
             269.00,1667.00 269.00,1585.00 269.00,1585.00
             269.00,1585.00 268.00,1570.00 268.00,1570.00
             268.00,1570.00 268.00,820.00 268.00,820.00
             268.00,820.00 269.00,803.00 269.00,803.00
             269.00,803.00 269.00,773.00 269.00,773.00
             269.00,773.00 269.96,761.00 269.96,761.00
             269.96,761.00 269.96,748.00 269.96,748.00
             269.96,748.00 270.91,738.00 270.91,738.00
             271.99,722.17 272.56,706.11 278.05,691.00
             281.14,682.51 281.98,682.29 285.74,675.00
             285.74,675.00 293.69,660.00 293.69,660.00
             306.75,639.47 333.54,612.88 350.99,595.00
             350.99,595.00 360.04,585.00 360.04,585.00
             360.04,585.00 383.96,561.00 383.96,561.00
             383.96,561.00 446.00,497.00 446.00,497.00
             446.00,497.00 512.00,430.00 512.00,430.00
             525.92,416.08 543.87,398.19 562.00,390.43
             570.94,386.60 587.71,380.24 597.00,378.46
             597.00,378.46 644.00,374.91 644.00,374.91
             644.00,374.91 692.00,372.00 692.00,372.00
             692.00,372.00 706.00,371.00 706.00,371.00
             706.00,371.00 729.00,370.00 729.00,370.00
             729.00,370.00 744.00,369.00 744.00,369.00
             744.00,369.00 763.00,368.00 763.00,368.00
             763.00,368.00 810.00,366.00 810.00,366.00
             810.00,366.00 825.00,365.00 825.00,365.00
             825.00,365.00 846.00,364.00 846.00,364.00
             846.00,364.00 864.00,363.00 864.00,363.00
             864.00,363.00 893.00,362.00 893.00,362.00
             893.00,362.00 908.00,361.00 908.00,361.00
             908.00,361.00 953.00,359.00 953.00,359.00
             953.00,359.00 969.00,358.00 969.00,358.00
             969.00,358.00 1017.00,356.00 1017.00,356.00
             1017.00,356.00 1030.00,355.00 1030.00,355.00
             1030.00,355.00 1058.00,354.00 1058.00,354.00
             1058.00,354.00 1076.00,353.00 1076.00,353.00
             1076.00,353.00 1093.00,352.00 1093.00,352.00
             1093.00,352.00 1142.00,350.00 1142.00,350.00
             1142.00,350.00 1157.00,349.00 1157.00,349.00
             1157.00,349.00 1204.00,347.00 1204.00,347.00
             1204.00,347.00 1219.00,345.96 1219.00,345.96
             1219.00,345.96 1230.00,345.96 1230.00,345.96
             1230.00,345.96 1241.00,345.00 1241.00,345.00
             1241.00,345.00 1263.00,344.00 1263.00,344.00
             1263.00,344.00 1285.00,343.00 1285.00,343.00
             1285.00,343.00 1306.00,342.00 1306.00,342.00
             1306.00,342.00 1353.00,340.00 1353.00,340.00
             1353.00,340.00 1370.00,339.00 1370.00,339.00
             1370.00,339.00 1389.00,338.00 1389.00,338.00
             1389.00,338.00 1418.00,337.00 1418.00,337.00
             1418.00,337.00 1433.00,336.00 1433.00,336.00
             1433.00,336.00 1452.00,335.00 1452.00,335.00
             1452.00,335.00 1481.00,334.00 1481.00,334.00
             1481.00,334.00 1494.00,333.00 1494.00,333.00
             1494.00,333.00 1523.00,332.00 1523.00,332.00
             1523.00,332.00 1536.00,331.00 1536.00,331.00
             1536.00,331.00 1564.00,330.00 1564.00,330.00
             1564.00,330.00 1579.00,329.00 1579.00,329.00
             1579.00,329.00 1600.00,328.00 1600.00,328.00
             1600.00,328.00 1618.00,327.00 1618.00,327.00
             1618.00,327.00 1647.00,326.00 1647.00,326.00
             1647.00,326.00 1662.00,325.00 1662.00,325.00
             1662.00,325.00 1707.00,323.00 1707.00,323.00
             1707.00,323.00 1724.00,322.00 1724.00,322.00
             1724.00,322.00 1745.00,321.00 1745.00,321.00
             1745.00,321.00 1764.00,320.00 1764.00,320.00
             1764.00,320.00 1793.00,319.00 1793.00,319.00
             1793.00,319.00 1806.00,318.00 1806.00,318.00
             1806.00,318.00 1834.00,317.00 1834.00,317.00
             1834.00,317.00 1850.00,316.00 1850.00,316.00
             1850.00,316.00 1872.00,315.00 1872.00,315.00
             1872.00,315.00 1892.00,314.00 1892.00,314.00
             1892.00,314.00 1921.00,313.00 1921.00,313.00
             1921.00,313.00 1931.00,312.04 1931.00,312.04
             1931.00,312.04 1943.00,312.04 1943.00,312.04
             1943.00,312.04 1957.00,311.00 1957.00,311.00
             1957.00,311.00 1984.00,310.00 1984.00,310.00
             1984.00,310.00 2000.00,309.00 2000.00,309.00
             2000.00,309.00 2045.00,307.00 2045.00,307.00
             2045.00,307.00 2062.00,306.00 2062.00,306.00
             2062.00,306.00 2082.00,305.00 2082.00,305.00
             2082.00,305.00 2128.00,303.00 2128.00,303.00
             2128.00,303.00 2141.00,302.00 2141.00,302.00
             2141.00,302.00 2169.00,301.00 2169.00,301.00
             2169.00,301.00 2185.00,300.00 2185.00,300.00
             2185.00,300.00 2206.00,299.00 2206.00,299.00
             2206.00,299.00 2226.00,298.00 2226.00,298.00
             2226.00,298.00 2256.00,297.00 2256.00,297.00
             2256.00,297.00 2271.00,296.00 2271.00,296.00
             2271.00,296.00 2291.00,295.00 2291.00,295.00
             2291.00,295.00 2320.00,294.00 2320.00,294.00
             2320.00,294.00 2337.00,292.96 2337.00,292.96
             2337.00,292.96 2348.00,292.96 2348.00,292.96
             2348.00,292.96 2359.00,292.00 2359.00,292.00
             2359.00,292.00 2382.00,291.00 2382.00,291.00
             2382.00,291.00 2404.00,290.00 2404.00,290.00
             2404.00,290.00 2455.00,288.00 2455.00,288.00
             2455.00,288.00 2471.00,287.00 2471.00,287.00
             2471.00,287.00 2492.00,286.00 2492.00,286.00
             2492.00,286.00 2510.00,285.00 2510.00,285.00
             2510.00,285.00 2539.00,284.00 2539.00,284.00
             2539.00,284.00 2554.00,283.00 2554.00,283.00
             2554.00,283.00 2572.00,282.00 2572.00,282.00
             2572.00,282.00 2600.00,281.00 2600.00,281.00
             2600.00,281.00 2616.00,280.00 2616.00,280.00
             2616.00,280.00 2666.00,278.00 2666.00,278.00
             2666.00,278.00 2679.00,277.00 2679.00,277.00
             2679.00,277.00 2709.00,276.00 2709.00,276.00
             2709.00,276.00 2724.00,275.00 2724.00,275.00
             2724.00,275.00 2746.00,274.00 2746.00,274.00
             2746.00,274.00 2767.00,273.00 2767.00,273.00
             2767.00,273.00 2796.00,272.00 2796.00,272.00
             2796.00,272.00 2810.00,271.00 2810.00,271.00
             2810.00,271.00 2840.00,270.00 2840.00,270.00
             2840.00,270.00 2855.00,269.00 2855.00,269.00
             2855.00,269.00 2877.00,268.00 2877.00,268.00
             2877.00,268.00 2900.00,267.00 2900.00,267.00
             2900.00,267.00 2931.00,266.00 2931.00,266.00
             2931.00,266.00 2944.00,265.00 2944.00,265.00
             2944.00,265.00 2973.00,264.00 2973.00,264.00
             2973.00,264.00 2990.00,263.00 2990.00,263.00
             2990.00,263.00 3011.00,262.00 3011.00,262.00
             3011.00,262.00 3040.00,261.00 3040.00,261.00
             3040.00,261.00 3055.00,260.00 3055.00,260.00
             3055.00,260.00 3075.00,259.00 3075.00,259.00
             3075.00,259.00 3104.00,258.00 3104.00,258.00
             3104.00,258.00 3117.00,257.00 3117.00,257.00
             3117.00,257.00 3147.00,256.00 3147.00,256.00
             3147.00,256.00 3157.00,255.04 3157.00,255.04
             3157.00,255.04 3169.00,255.04 3169.00,255.04
             3169.00,255.04 3184.00,254.00 3184.00,254.00
             3184.00,254.00 3207.00,253.00 3207.00,253.00
             3207.00,253.00 3229.00,252.00 3229.00,252.00
             3229.00,252.00 3261.00,251.00 3261.00,251.00
             3261.00,251.00 3276.00,250.00 3276.00,250.00
             3276.00,250.00 3299.00,248.96 3299.00,248.96
             3299.00,248.96 3311.00,248.96 3311.00,248.96
             3311.00,248.96 3323.00,248.00 3323.00,248.00
             3323.00,248.00 3360.00,247.00 3360.00,247.00
             3360.00,247.00 3377.00,246.00 3377.00,246.00
             3377.00,246.00 3392.00,246.00 3392.00,246.00
             3392.00,246.00 3408.00,245.00 3408.00,245.00
             3408.00,245.00 3439.00,244.14 3439.00,244.14 Z" />
</svg>
