<?xml version="1.0" encoding="UTF-8" standalone="no"?>
<!DOCTYPE svg PUBLIC "-//W3C//DTD SVG 20010904//EN"
              "http://www.w3.org/TR/2001/REC-SVG-20010904/DTD/svg10.dtd">

<svg xmlns="http://www.w3.org/2000/svg"
     width="1158.06mm" height="868.473mm"
     viewBox="0 0 4103 3077">
  <path fill="black" stroke="black" stroke-width="1"
        d="M 398.00,838.00
           C 398.00,838.00 398.00,755.00 398.00,755.00
             398.00,755.00 399.00,738.00 399.00,738.00
             399.01,732.29 398.46,725.31 400.61,720.00
             402.64,714.99 410.08,706.38 413.75,702.00
             413.75,702.00 449.91,664.00 449.91,664.00
             449.91,664.00 480.96,632.00 480.96,632.00
             480.96,632.00 564.00,547.00 564.00,547.00
             564.00,547.00 595.00,516.00 595.00,516.00
             599.62,511.40 611.31,500.58 617.00,498.22
             620.79,496.66 637.14,496.05 642.00,496.00
             642.00,496.00 660.00,495.00 660.00,495.00
             660.00,495.00 677.00,494.00 677.00,494.00
             677.00,494.00 694.00,493.00 694.00,493.00
             694.00,493.00 723.00,492.00 723.00,492.00
             723.00,492.00 738.00,491.00 738.00,491.00
             738.00,491.00 757.00,490.00 757.00,490.00
             757.00,490.00 786.00,489.00 786.00,489.00
             786.00,489.00 799.00,488.00 799.00,488.00
             799.00,488.00 828.00,487.00 828.00,487.00
             828.00,487.00 843.00,486.00 843.00,486.00
             843.00,486.00 865.00,485.00 865.00,485.00
             865.00,485.00 887.00,484.00 887.00,484.00
             887.00,484.00 916.00,483.00 916.00,483.00
             916.00,483.00 929.00,482.00 929.00,482.00
             929.00,482.00 959.00,481.00 959.00,481.00
             959.00,481.00 974.00,480.00 974.00,480.00
             974.00,480.00 996.00,479.00 996.00,479.00
             996.00,479.00 1017.00,478.00 1017.00,478.00
             1017.00,478.00 1046.00,477.00 1046.00,477.00
             1046.00,477.00 1061.00,476.00 1061.00,476.00
             1061.00,476.00 1109.00,474.00 1109.00,474.00
             1109.00,474.00 1126.00,473.00 1126.00,473.00
             1126.00,473.00 1148.00,472.00 1148.00,472.00
             1148.00,472.00 1168.00,471.00 1168.00,471.00
             1168.00,471.00 1197.00,470.00 1197.00,470.00
             1197.00,470.00 1211.00,469.00 1211.00,469.00
             1211.00,469.00 1241.00,468.00 1241.00,468.00
             1241.00,468.00 1254.00,467.00 1254.00,467.00
             1254.00,467.00 1282.00,466.00 1282.00,466.00
             1282.00,466.00 1299.00,465.00 1299.00,465.00
             1299.00,465.00 1320.00,464.00 1320.00,464.00
             1320.00,464.00 1349.00,463.00 1349.00,463.00
             1349.00,463.00 1364.00,462.00 1364.00,462.00
             1364.00,462.00 1411.00,460.00 1411.00,460.00
             1411.00,460.00 1427.00,458.96 1427.00,458.96
             1427.00,458.96 1438.00,458.96 1438.00,458.96
             1438.00,458.96 1449.00,458.00 1449.00,458.00
             1449.00,458.00 1471.00,457.00 1471.00,457.00
             1471.00,457.00 1492.00,456.00 1492.00,456.00
             1492.00,456.00 1517.00,455.00 1517.00,455.00
             1517.00,455.00 1532.00,454.00 1532.00,454.00
             1532.00,454.00 1562.00,453.00 1562.00,453.00
             1562.00,453.00 1577.00,452.00 1577.00,452.00
             1577.00,452.00 1599.00,451.00 1599.00,451.00
             1599.00,451.00 1618.00,450.00 1618.00,450.00
             1618.00,450.00 1648.00,449.00 1648.00,449.00
             1648.00,449.00 1664.00,448.00 1664.00,448.00
             1664.00,448.00 1686.00,447.00 1686.00,447.00
             1686.00,447.00 1715.00,446.00 1715.00,446.00
             1715.00,446.00 1729.00,445.00 1729.00,445.00
             1729.00,445.00 1759.00,444.00 1759.00,444.00
             1759.00,444.00 1772.00,443.00 1772.00,443.00
             1772.00,443.00 1800.00,442.00 1800.00,442.00
             1800.00,442.00 1817.00,441.00 1817.00,441.00
             1817.00,441.00 1837.00,440.00 1837.00,440.00
             1837.00,440.00 1866.00,439.00 1866.00,439.00
             1866.00,439.00 1880.00,438.00 1880.00,438.00
             1880.00,438.00 1908.00,437.00 1908.00,437.00
             1908.00,437.00 1924.00,436.00 1924.00,436.00
             1924.00,436.00 1945.00,435.00 1945.00,435.00
             1945.00,435.00 1967.00,434.00 1967.00,434.00
             1967.00,434.00 1996.00,433.00 1996.00,433.00
             1996.00,433.00 2009.00,432.00 2009.00,432.00
             2009.00,432.00 2039.00,431.00 2039.00,431.00
             2039.00,431.00 2054.00,430.00 2054.00,430.00
             2054.00,430.00 2076.00,429.00 2076.00,429.00
             2076.00,429.00 2125.00,427.00 2125.00,427.00
             2125.00,427.00 2138.00,426.00 2138.00,426.00
             2138.00,426.00 2169.00,425.00 2169.00,425.00
             2169.00,425.00 2186.00,424.00 2186.00,424.00
             2186.00,424.00 2214.00,423.00 2214.00,423.00
             2214.00,423.00 2230.00,422.00 2230.00,422.00
             2230.00,422.00 2279.00,420.00 2279.00,420.00
             2279.00,420.00 2296.00,419.00 2296.00,419.00
             2296.00,419.00 2315.00,418.00 2315.00,418.00
             2315.00,418.00 2363.00,416.00 2363.00,416.00
             2363.00,416.00 2378.00,415.00 2378.00,415.00
             2378.00,415.00 2407.00,414.00 2407.00,414.00
             2407.00,414.00 2423.00,413.00 2423.00,413.00
             2423.00,413.00 2445.00,412.00 2445.00,412.00
             2445.00,412.00 2474.00,411.00 2474.00,411.00
             2474.00,411.00 2488.00,410.00 2488.00,410.00
             2488.00,410.00 2517.00,409.00 2517.00,409.00
             2517.00,409.00 2530.00,408.00 2530.00,408.00
             2530.00,408.00 2560.00,407.00 2560.00,407.00
             2560.00,407.00 2578.00,406.00 2578.00,406.00
             2578.00,406.00 2595.00,405.00 2595.00,405.00
             2595.00,405.00 2614.00,404.00 2614.00,404.00
             2614.00,404.00 2642.00,403.00 2642.00,403.00
             2642.00,403.00 2655.00,402.00 2655.00,402.00
             2655.00,402.00 2683.00,401.00 2683.00,401.00
             2683.00,401.00 2700.00,400.00 2700.00,400.00
             2700.00,400.00 2720.00,399.00 2720.00,399.00
             2720.00,399.00 2749.00,398.00 2749.00,398.00
             2749.00,398.00 2764.00,397.00 2764.00,397.00
             2764.00,397.00 2810.00,395.00 2810.00,395.00
             2810.00,395.00 2827.00,394.00 2827.00,394.00
             2827.00,394.00 2849.00,393.00 2849.00,393.00
             2849.00,393.00 2868.00,392.00 2868.00,392.00
             2868.00,392.00 2897.00,391.00 2897.00,391.00
             2897.00,391.00 2910.00,390.00 2910.00,390.00
             2910.00,390.00 2940.00,389.00 2940.00,389.00
             2940.00,389.00 2955.00,388.00 2955.00,388.00
             2955.00,388.00 2976.00,387.00 2976.00,387.00
             2976.00,387.00 2996.00,386.00 2996.00,386.00
             2996.00,386.00 3025.00,385.00 3025.00,385.00
             3025.00,385.00 3040.00,384.00 3040.00,384.00
             3040.00,384.00 3059.00,383.00 3059.00,383.00
             3059.00,383.00 3088.00,382.00 3088.00,382.00
             3088.00,382.00 3101.00,381.00 3101.00,381.00
             3101.00,381.00 3129.00,380.00 3129.00,380.00
             3129.00,380.00 3142.00,379.00 3142.00,379.00
             3142.00,379.00 3172.00,378.00 3172.00,378.00
             3172.00,378.00 3187.00,377.00 3187.00,377.00
             3187.00,377.00 3208.00,376.00 3208.00,376.00
             3208.00,376.00 3227.00,375.00 3227.00,375.00
             3227.00,375.00 3255.00,374.00 3255.00,374.00
             3255.00,374.00 3265.00,373.04 3265.00,373.04
             3265.00,373.04 3276.00,373.04 3276.00,373.04
             3276.00,373.04 3291.00,372.00 3291.00,372.00
             3291.00,372.00 3311.00,371.00 3311.00,371.00
             3311.00,371.00 3356.00,369.00 3356.00,369.00
             3356.00,369.00 3366.00,368.04 3366.00,368.04
             3366.00,368.04 3376.00,368.04 3376.00,368.04
             3376.00,368.04 3391.00,366.96 3391.00,366.96
             3391.00,366.96 3403.00,366.96 3403.00,366.96
             3403.00,366.96 3415.00,366.00 3415.00,366.00
             3415.00,366.00 3455.00,366.00 3455.00,366.00
             3461.53,366.01 3473.14,367.20 3479.00,369.91
             3485.64,372.99 3490.56,378.86 3496.00,383.58
             3496.00,383.58 3534.00,419.96 3534.00,419.96
             3534.00,419.96 3543.00,428.04 3543.00,428.04
             3543.00,428.04 3589.00,473.99 3589.00,473.99
             3589.00,473.99 3599.00,483.04 3599.00,483.04
             3599.00,483.04 3621.00,505.00 3621.00,505.00
             3621.00,505.00 3644.00,528.00 3644.00,528.00
             3647.75,531.75 3654.09,537.29 3656.15,542.00
             3659.12,548.80 3658.50,551.38 3659.28,558.00
             3659.28,558.00 3660.00,603.00 3660.00,603.00
             3660.00,603.00 3635.00,604.00 3635.00,604.00
             3635.00,604.00 3621.00,605.00 3621.00,605.00
             3621.00,605.00 3602.00,606.83 3602.00,606.83
             3602.00,606.83 3570.00,609.00 3570.00,609.00
             3570.00,609.00 3570.00,590.00 3570.00,590.00
             3570.00,588.05 3570.13,584.95 3569.40,583.17
             3568.43,580.78 3564.91,577.86 3563.00,575.99
             3563.00,575.99 3548.00,561.00 3548.00,561.00
             3548.00,561.00 3536.00,549.96 3536.00,549.96
             3536.00,549.96 3501.00,515.01 3501.00,515.01
             3501.00,515.01 3480.00,495.00 3480.00,495.00
             3480.00,495.00 3458.00,473.00 3458.00,473.00
             3455.12,470.16 3448.66,463.90 3445.00,462.59
             3442.76,461.80 3437.56,461.97 3435.00,462.00
             3435.00,462.00 3420.00,463.00 3420.00,463.00
             3420.00,463.00 3379.00,465.00 3379.00,465.00
             3379.00,465.00 3362.00,466.00 3362.00,466.00
             3362.00,466.00 3342.00,467.00 3342.00,467.00
             3342.00,467.00 3298.00,469.00 3298.00,469.00
             3298.00,469.00 3282.00,470.00 3282.00,470.00
             3282.00,470.00 3261.00,471.00 3261.00,471.00
             3261.00,471.00 3241.00,472.00 3241.00,472.00
             3241.00,472.00 3212.00,473.00 3212.00,473.00
             3212.00,473.00 3199.00,474.00 3199.00,474.00
             3199.00,474.00 3170.00,475.00 3170.00,475.00
             3170.00,475.00 3155.00,476.00 3155.00,476.00
             3155.00,476.00 3134.00,477.00 3134.00,477.00
             3134.00,477.00 3114.00,478.00 3114.00,478.00
             3114.00,478.00 3085.00,479.00 3085.00,479.00
             3085.00,479.00 3070.00,480.00 3070.00,480.00
             3070.00,480.00 3024.00,482.00 3024.00,482.00
             3024.00,482.00 3008.00,483.00 3008.00,483.00
             3008.00,483.00 2987.00,484.00 2987.00,484.00
             2987.00,484.00 2965.00,485.00 2965.00,485.00
             2965.00,485.00 2943.00,486.00 2943.00,486.00
             2943.00,486.00 2922.00,487.00 2922.00,487.00
             2922.00,487.00 2904.00,488.00 2904.00,488.00
             2904.00,488.00 2876.00,489.00 2876.00,489.00
             2876.00,489.00 2860.00,490.00 2860.00,490.00
             2860.00,490.00 2840.00,491.00 2840.00,491.00
             2840.00,491.00 2811.00,492.00 2811.00,492.00
             2811.00,492.00 2796.00,493.00 2796.00,493.00
             2796.00,493.00 2778.00,494.00 2778.00,494.00
             2778.00,494.00 2748.00,495.00 2748.00,495.00
             2748.00,495.00 2735.00,496.00 2735.00,496.00
             2735.00,496.00 2705.00,497.00 2705.00,497.00
             2705.00,497.00 2692.00,498.00 2692.00,498.00
             2692.00,498.00 2664.00,499.00 2664.00,499.00
             2664.00,499.00 2648.00,500.00 2648.00,500.00
             2648.00,500.00 2627.00,501.00 2627.00,501.00
             2627.00,501.00 2578.00,503.00 2578.00,503.00
             2578.00,503.00 2565.00,504.00 2565.00,504.00
             2565.00,504.00 2537.00,505.00 2537.00,505.00
             2537.00,505.00 2520.00,506.00 2520.00,506.00
             2520.00,506.00 2500.00,507.00 2500.00,507.00
             2500.00,507.00 2471.00,508.00 2471.00,508.00
             2471.00,508.00 2456.00,509.00 2456.00,509.00
             2456.00,509.00 2409.00,511.00 2409.00,511.00
             2409.00,511.00 2393.00,512.00 2393.00,512.00
             2393.00,512.00 2371.00,513.00 2371.00,513.00
             2371.00,513.00 2342.00,514.00 2342.00,514.00
             2342.00,514.00 2329.00,515.00 2329.00,515.00
             2329.00,515.00 2299.00,516.00 2299.00,516.00
             2299.00,516.00 2284.00,517.00 2284.00,517.00
             2284.00,517.00 2262.00,518.00 2262.00,518.00
             2262.00,518.00 2242.00,519.00 2242.00,519.00
             2242.00,519.00 2213.00,520.00 2213.00,520.00
             2213.00,520.00 2200.00,521.00 2200.00,521.00
             2200.00,521.00 2171.00,522.00 2171.00,522.00
             2171.00,522.00 2155.00,523.00 2155.00,523.00
             2155.00,523.00 2132.00,524.00 2132.00,524.00
             2132.00,524.00 2112.00,525.00 2112.00,525.00
             2112.00,525.00 2083.00,526.00 2083.00,526.00
             2083.00,526.00 2070.00,527.00 2070.00,527.00
             2070.00,527.00 2040.00,528.00 2040.00,528.00
             2040.00,528.00 2026.00,529.00 2026.00,529.00
             2026.00,529.00 1996.00,530.00 1996.00,530.00
             1996.00,530.00 1981.00,531.00 1981.00,531.00
             1981.00,531.00 1960.00,532.00 1960.00,532.00
             1960.00,532.00 1911.00,534.00 1911.00,534.00
             1911.00,534.00 1901.00,534.96 1901.00,534.96
             1901.00,534.96 1889.00,534.96 1889.00,534.96
             1889.00,534.96 1874.00,536.00 1874.00,536.00
             1874.00,536.00 1854.00,537.00 1854.00,537.00
             1854.00,537.00 1825.00,538.00 1825.00,538.00
             1825.00,538.00 1812.00,539.00 1812.00,539.00
             1812.00,539.00 1782.00,540.00 1782.00,540.00
             1782.00,540.00 1769.00,541.00 1769.00,541.00
             1769.00,541.00 1742.00,542.00 1742.00,542.00
             1742.00,542.00 1725.00,543.00 1725.00,543.00
             1725.00,543.00 1676.00,545.00 1676.00,545.00
             1676.00,545.00 1663.00,546.00 1663.00,546.00
             1663.00,546.00 1633.00,547.00 1633.00,547.00
             1633.00,547.00 1618.00,548.00 1618.00,548.00
             1618.00,548.00 1597.00,549.00 1597.00,549.00
             1597.00,549.00 1548.00,551.00 1548.00,551.00
             1548.00,551.00 1528.00,552.00 1528.00,552.00
             1528.00,552.00 1512.00,553.00 1512.00,553.00
             1512.00,553.00 1491.00,554.00 1491.00,554.00
             1491.00,554.00 1444.00,556.00 1444.00,556.00
             1444.00,556.00 1428.00,557.00 1428.00,557.00
             1428.00,557.00 1379.00,559.00 1379.00,559.00
             1379.00,559.00 1366.00,560.00 1366.00,560.00
             1366.00,560.00 1337.00,561.00 1337.00,561.00
             1337.00,561.00 1324.00,562.00 1324.00,562.00
             1324.00,562.00 1297.00,563.00 1297.00,563.00
             1297.00,563.00 1280.00,564.00 1280.00,564.00
             1280.00,564.00 1260.00,565.00 1260.00,565.00
             1260.00,565.00 1231.00,566.00 1231.00,566.00
             1231.00,566.00 1218.00,567.00 1218.00,567.00
             1218.00,567.00 1189.00,568.00 1189.00,568.00
             1189.00,568.00 1176.00,569.00 1176.00,569.00
             1176.00,569.00 1147.00,570.00 1147.00,570.00
             1147.00,570.00 1134.00,571.00 1134.00,571.00
             1134.00,571.00 1107.00,572.00 1107.00,572.00
             1107.00,572.00 1090.00,573.00 1090.00,573.00
             1090.00,573.00 1041.00,575.00 1041.00,575.00
             1041.00,575.00 1031.00,575.96 1031.00,575.96
             1031.00,575.96 1020.00,575.96 1020.00,575.96
             1020.00,575.96 1005.00,577.00 1005.00,577.00
             1005.00,577.00 984.00,578.00 984.00,578.00
             984.00,578.00 963.00,579.00 963.00,579.00
             963.00,579.00 934.00,580.00 934.00,580.00
             934.00,580.00 920.00,581.00 920.00,581.00
             920.00,581.00 890.00,582.00 890.00,582.00
             890.00,582.00 877.00,583.00 877.00,583.00
             877.00,583.00 848.00,584.00 848.00,584.00
             848.00,584.00 831.00,585.00 831.00,585.00
             831.00,585.00 809.00,586.00 809.00,586.00
             809.00,586.00 780.00,587.00 780.00,587.00
             780.00,587.00 770.00,587.96 770.00,587.96
             770.00,587.96 758.00,587.96 758.00,587.96
             758.00,587.96 743.00,589.00 743.00,589.00
             743.00,589.00 689.00,591.00 689.00,591.00
             689.00,591.00 674.00,592.00 674.00,592.00
             674.00,592.00 654.00,592.00 654.00,592.00
             644.48,592.06 642.49,596.51 636.00,603.00
             636.00,603.00 619.04,620.00 619.04,620.00
             619.04,620.00 607.00,633.00 607.00,633.00
             607.00,633.00 542.01,699.00 542.01,699.00
             542.01,699.00 526.00,716.00 526.00,716.00
             526.00,716.00 497.00,746.00 497.00,746.00
             489.28,753.72 484.02,755.78 484.00,767.00
             484.00,767.00 484.00,789.00 484.00,789.00
             484.00,789.00 485.00,806.00 485.00,806.00
             485.00,806.00 485.00,833.00 485.00,833.00
             485.00,833.00 459.00,834.00 459.00,834.00
             459.00,834.00 445.00,835.00 445.00,835.00
             445.00,835.00 423.00,836.96 423.00,836.96
             423.00,836.96 413.00,836.96 413.00,836.96
             413.00,836.96 398.00,838.00 398.00,838.00 Z
           M 3572.00,1478.00
           C 3572.00,1478.00 3586.00,1476.96 3586.00,1476.96
             3586.00,1476.96 3596.00,1476.96 3596.00,1476.96
             3596.00,1476.96 3627.00,1474.00 3627.00,1474.00
             3627.00,1474.00 3638.00,1473.00 3638.00,1473.00
             3638.00,1473.00 3648.00,1473.00 3648.00,1473.00
             3648.00,1473.00 3663.00,1472.00 3663.00,1472.00
             3663.00,1472.00 3663.00,1661.00 3663.00,1661.00
             3663.00,1661.00 3663.92,1674.00 3663.92,1674.00
             3663.92,1682.75 3660.28,1692.93 3655.21,1700.00
             3646.46,1712.22 3631.18,1717.36 3618.00,1723.30
             3618.00,1723.30 3540.00,1757.42 3540.00,1757.42
             3540.00,1757.42 3412.00,1814.14 3412.00,1814.14
             3412.00,1814.14 3140.00,1936.69 3140.00,1936.69
             3140.00,1936.69 3092.00,1957.86 3092.00,1957.86
             3092.00,1957.86 2943.00,2024.14 2943.00,2024.14
             2943.00,2024.14 2899.00,2043.30 2899.00,2043.30
             2899.00,2043.30 2846.00,2066.15 2846.00,2066.15
             2842.52,2067.63 2829.27,2073.93 2826.30,2072.65
             2822.69,2071.10 2823.01,2063.28 2823.00,2060.00
             2823.00,2060.00 2823.00,2042.00 2823.00,2042.00
             2823.00,2042.00 2822.01,2027.00 2822.01,2027.00
             2822.01,2027.00 2823.00,2015.00 2823.00,2015.00
             2823.00,2015.00 2823.00,1994.00 2823.00,1994.00
             2823.05,1990.39 2823.71,1982.21 2825.85,1979.39
             2827.88,1976.73 2837.56,1972.47 2841.00,1970.75
             2841.00,1970.75 2879.00,1953.22 2879.00,1953.22
             2879.00,1953.22 2947.00,1922.69 2947.00,1922.69
             2947.00,1922.69 3065.00,1869.14 3065.00,1869.14
             3065.00,1869.14 3137.00,1836.31 3137.00,1836.31
             3137.00,1836.31 3263.00,1779.31 3263.00,1779.31
             3263.00,1779.31 3423.00,1707.86 3423.00,1707.86
             3423.00,1707.86 3453.00,1694.77 3453.00,1694.77
             3453.00,1694.77 3544.00,1654.77 3544.00,1654.77
             3544.00,1654.77 3562.00,1646.58 3562.00,1646.58
             3564.80,1645.35 3569.36,1643.34 3570.98,1640.67
             3572.22,1638.63 3572.00,1635.35 3572.00,1633.00
             3572.00,1633.00 3572.00,1478.00 3572.00,1478.00 Z
           M 403.00,1706.00
           C 403.00,1706.00 426.00,1705.00 426.00,1705.00
             426.00,1705.00 452.00,1703.00 452.00,1703.00
             452.00,1703.00 463.00,1702.09 463.00,1702.09
             463.00,1702.09 490.00,1701.00 490.00,1701.00
             490.00,1701.00 490.00,1739.00 490.00,1739.00
             490.00,1741.26 489.78,1744.68 491.02,1746.61
             492.58,1749.03 497.35,1750.54 500.00,1751.60
             500.00,1751.60 522.00,1760.40 522.00,1760.40
             522.00,1760.40 630.00,1800.68 630.00,1800.68
             630.00,1800.68 872.00,1889.05 872.00,1889.05
             872.00,1889.05 1083.00,1966.31 1083.00,1966.31
             1083.00,1966.31 1226.00,2018.42 1226.00,2018.42
             1226.00,2018.42 1257.00,2029.95 1257.00,2029.95
             1264.25,2032.65 1268.84,2032.49 1269.00,2041.00
             1269.00,2041.00 1269.00,2112.00 1269.00,2112.00
             1269.00,2115.12 1268.62,2127.24 1266.26,2128.97
             1263.94,2130.67 1254.77,2127.23 1252.00,2126.33
             1252.00,2126.33 1212.00,2112.19 1212.00,2112.19
             1212.00,2112.19 1156.00,2092.31 1156.00,2092.31
             1156.00,2092.31 1033.00,2048.31 1033.00,2048.31
             1033.00,2048.31 705.00,1930.05 705.00,1930.05
             705.00,1930.05 549.00,1873.42 549.00,1873.42
             549.00,1873.42 493.00,1853.31 493.00,1853.31
             493.00,1853.31 455.00,1839.67 455.00,1839.67
             455.00,1839.67 427.00,1829.69 427.00,1829.69
             421.65,1827.78 414.38,1825.73 410.33,1821.67
             404.06,1815.41 403.01,1801.53 403.00,1793.00
             403.00,1793.00 403.00,1706.00 403.00,1706.00 Z" />
</svg>
