<?xml version="1.0" encoding="UTF-8" standalone="no"?>
<!DOCTYPE svg PUBLIC "-//W3C//DTD SVG 20010904//EN"
              "http://www.w3.org/TR/2001/REC-SVG-20010904/DTD/svg10.dtd">

<svg xmlns="http://www.w3.org/2000/svg"
     width="1158.06mm" height="868.473mm"
     viewBox="0 0 4103 3077">
  <path fill="black" stroke="black" stroke-width="1"
        d="M 2182.00,1605.21
           C 2182.00,1605.21 2226.00,1605.21 2226.00,1605.21
             2226.00,1605.21 2243.00,1606.00 2243.00,1606.00
             2243.00,1606.00 2348.00,1606.00 2348.00,1606.00
             2348.00,1606.00 2363.00,1607.00 2363.00,1607.00
             2363.00,1607.00 2391.00,1607.00 2391.00,1607.00
             2391.00,1607.00 2406.00,1608.00 2406.00,1608.00
             2406.00,1608.00 2502.00,1613.91 2502.00,1613.91
             2557.43,1617.72 2613.02,1623.04 2668.00,1631.58
             2691.20,1635.18 2714.21,1639.43 2737.00,1645.13
             2752.31,1648.95 2768.01,1653.35 2782.00,1660.78
             2790.77,1665.44 2794.75,1669.35 2802.00,1675.72
             2807.79,1680.79 2811.84,1682.76 2812.04,1691.00
             2812.04,1691.00 2812.04,1706.00 2812.04,1706.00
             2812.04,1706.00 2813.00,1718.00 2813.00,1718.00
             2813.00,1718.00 2813.00,1750.00 2813.00,1750.00
             2812.99,1756.42 2812.02,1766.13 2809.48,1772.00
             2797.96,1798.57 2757.59,1809.02 2732.00,1816.29
             2707.14,1823.36 2681.34,1828.33 2656.00,1833.40
             2589.78,1846.65 2522.93,1855.55 2456.00,1864.28
             2456.00,1864.28 2357.00,1875.83 2357.00,1875.83
             2357.00,1875.83 2260.00,1883.09 2260.00,1883.09
             2260.00,1883.09 2237.00,1885.00 2237.00,1885.00
             2237.00,1885.00 2228.00,1885.00 2228.00,1885.00
             2228.00,1885.00 2218.00,1886.00 2218.00,1886.00
             2218.00,1886.00 2180.00,1888.00 2180.00,1888.00
             2180.00,1888.00 2163.00,1889.00 2163.00,1889.00
             2163.00,1889.00 2149.00,1890.00 2149.00,1890.00
             2149.00,1890.00 2133.00,1891.00 2133.00,1891.00
             2133.00,1891.00 2109.00,1892.00 2109.00,1892.00
             2109.00,1892.00 2094.00,1893.00 2094.00,1893.00
             2094.00,1893.00 2059.00,1893.00 2059.00,1893.00
             2059.00,1893.00 2044.00,1894.00 2044.00,1894.00
             2044.00,1894.00 1944.00,1894.00 1944.00,1894.00
             1944.00,1894.00 1764.00,1894.00 1764.00,1894.00
             1764.00,1894.00 1749.00,1893.00 1749.00,1893.00
             1749.00,1893.00 1732.00,1893.00 1732.00,1893.00
             1732.00,1893.00 1711.00,1892.00 1711.00,1892.00
             1711.00,1892.00 1692.00,1891.00 1692.00,1891.00
             1692.00,1891.00 1682.00,1890.00 1682.00,1890.00
             1682.00,1890.00 1673.00,1890.00 1673.00,1890.00
             1673.00,1890.00 1653.00,1888.09 1653.00,1888.09
             1653.00,1888.09 1554.00,1880.08 1554.00,1880.08
             1554.00,1880.08 1494.00,1874.17 1494.00,1874.17
             1444.52,1869.22 1395.59,1862.36 1347.00,1851.58
             1327.02,1847.14 1303.77,1840.12 1288.00,1826.70
             1284.69,1823.89 1275.96,1816.67 1274.60,1813.00
             1273.89,1811.07 1274.00,1808.08 1273.96,1806.00
             1273.96,1806.00 1273.96,1794.00 1273.96,1794.00
             1273.96,1794.00 1273.00,1782.00 1273.00,1782.00
             1273.00,1782.00 1273.00,1747.00 1273.00,1747.00
             1273.07,1740.93 1274.38,1732.30 1277.36,1727.00
             1282.39,1718.03 1291.26,1711.72 1300.00,1706.72
             1316.83,1697.10 1336.41,1690.88 1355.00,1685.58
             1443.69,1660.27 1544.40,1647.59 1636.00,1636.28
             1636.00,1636.28 1699.00,1629.83 1699.00,1629.83
             1699.00,1629.83 1827.00,1618.91 1827.00,1618.91
             1827.00,1618.91 1875.00,1615.09 1875.00,1615.09
             1875.00,1615.09 1899.00,1613.91 1899.00,1613.91
             1899.00,1613.91 1927.00,1612.00 1927.00,1612.00
             1927.00,1612.00 1937.00,1611.09 1937.00,1611.09
             1937.00,1611.09 1960.00,1610.00 1960.00,1610.00
             1960.00,1610.00 1973.00,1609.00 1973.00,1609.00
             1973.00,1609.00 1991.00,1608.00 1991.00,1608.00
             1991.00,1608.00 2004.00,1608.00 2004.00,1608.00
             2004.00,1608.00 2021.00,1607.00 2021.00,1607.00
             2021.00,1607.00 2051.00,1607.00 2051.00,1607.00
             2051.00,1607.00 2068.00,1606.00 2068.00,1606.00
             2068.00,1606.00 2121.00,1606.00 2121.00,1606.00
             2121.00,1606.00 2182.00,1605.21 2182.00,1605.21 Z
           M 2655.00,1714.00
           C 2642.49,1709.91 2620.67,1707.52 2607.00,1705.72
             2607.00,1705.72 2527.00,1695.83 2527.00,1695.83
             2527.00,1695.83 2457.00,1689.91 2457.00,1689.91
             2457.00,1689.91 2450.00,1689.00 2450.00,1689.00
             2450.00,1689.00 2440.00,1689.00 2440.00,1689.00
             2440.00,1689.00 2429.00,1688.00 2429.00,1688.00
             2429.00,1688.00 2408.00,1686.96 2408.00,1686.96
             2408.00,1686.96 2395.00,1686.96 2395.00,1686.96
             2395.00,1686.96 2383.00,1686.00 2383.00,1686.00
             2383.00,1686.00 2367.00,1686.00 2367.00,1686.00
             2367.00,1686.00 2351.00,1685.00 2351.00,1685.00
             2351.00,1685.00 2320.00,1685.00 2320.00,1685.00
             2320.00,1685.00 2303.00,1684.00 2303.00,1684.00
             2303.00,1684.00 2237.00,1684.00 2237.00,1684.00
             2237.00,1684.00 2222.00,1683.00 2222.00,1683.00
             2222.00,1683.00 2117.00,1683.00 2117.00,1683.00
             2117.00,1683.00 2102.00,1684.00 2102.00,1684.00
             2102.00,1684.00 2057.00,1684.00 2057.00,1684.00
             2057.00,1684.00 2040.00,1685.00 2040.00,1685.00
             2040.00,1685.00 2020.00,1685.00 2020.00,1685.00
             2020.00,1685.00 2008.00,1685.96 2008.00,1685.96
             2008.00,1685.96 1992.00,1685.96 1992.00,1685.96
             1992.00,1685.96 1976.00,1687.00 1976.00,1687.00
             1976.00,1687.00 1945.00,1688.00 1945.00,1688.00
             1945.00,1688.00 1930.00,1689.00 1930.00,1689.00
             1930.00,1689.00 1913.00,1690.00 1913.00,1690.00
             1913.00,1690.00 1883.00,1691.91 1883.00,1691.91
             1883.00,1691.91 1834.00,1695.09 1834.00,1695.09
             1834.00,1695.09 1805.00,1697.83 1805.00,1697.83
             1805.00,1697.83 1731.00,1704.83 1731.00,1704.83
             1731.00,1704.83 1638.00,1715.28 1638.00,1715.28
             1638.00,1715.28 1592.00,1721.72 1592.00,1721.72
             1592.00,1721.72 1513.00,1734.20 1513.00,1734.20
             1513.00,1734.20 1459.00,1744.58 1459.00,1744.58
             1452.33,1746.05 1441.08,1747.62 1436.00,1752.00
             1445.51,1756.61 1465.92,1758.59 1477.00,1760.13
             1477.00,1760.13 1562.00,1769.17 1562.00,1769.17
             1562.00,1769.17 1648.00,1776.09 1648.00,1776.09
             1648.00,1776.09 1694.00,1779.00 1694.00,1779.00
             1694.00,1779.00 1704.00,1779.96 1704.00,1779.96
             1704.00,1779.96 1713.00,1779.96 1713.00,1779.96
             1713.00,1779.96 1732.00,1781.00 1732.00,1781.00
             1732.00,1781.00 1746.00,1782.00 1746.00,1782.00
             1746.00,1782.00 1774.00,1783.00 1774.00,1783.00
             1774.00,1783.00 1790.00,1784.00 1790.00,1784.00
             1790.00,1784.00 1838.00,1784.00 1838.00,1784.00
             1838.00,1784.00 1853.00,1785.00 1853.00,1785.00
             1853.00,1785.00 1963.00,1785.00 1963.00,1785.00
             1963.00,1785.00 1978.00,1784.00 1978.00,1784.00
             1978.00,1784.00 2057.00,1784.00 2057.00,1784.00
             2057.00,1784.00 2072.00,1783.00 2072.00,1783.00
             2072.00,1783.00 2095.00,1783.00 2095.00,1783.00
             2095.00,1783.00 2117.00,1782.00 2117.00,1782.00
             2117.00,1782.00 2139.00,1781.00 2139.00,1781.00
             2139.00,1781.00 2152.00,1780.00 2152.00,1780.00
             2152.00,1780.00 2173.00,1779.00 2173.00,1779.00
             2173.00,1779.00 2185.00,1778.00 2185.00,1778.00
             2185.00,1778.00 2194.00,1778.00 2194.00,1778.00
             2194.00,1778.00 2217.00,1776.09 2217.00,1776.09
             2217.00,1776.09 2335.00,1766.83 2335.00,1766.83
             2335.00,1766.83 2396.00,1760.16 2396.00,1760.16
             2450.86,1754.29 2505.69,1746.22 2560.00,1736.42
             2582.87,1732.30 2634.74,1722.63 2655.00,1716.00
             2655.00,1716.00 2655.00,1714.00 2655.00,1714.00 Z" />
</svg>
