<?xml version="1.0" encoding="UTF-8" standalone="no"?>
<!DOCTYPE svg PUBLIC "-//W3C//DTD SVG 20010904//EN"
              "http://www.w3.org/TR/2001/REC-SVG-20010904/DTD/svg10.dtd">

<svg xmlns="http://www.w3.org/2000/svg"
     width="1158.06mm" height="868.473mm"
     viewBox="0 0 4103 3077">
  <path fill="black" stroke="black" stroke-width="1"
        d="M 2376.00,1874.00
           C 2377.78,1880.35 2376.07,1884.78 2374.65,1891.00
             2374.65,1891.00 2366.88,1921.00 2366.88,1921.00
             2366.88,1921.00 2340.33,2007.00 2340.33,2007.00
             2340.33,2007.00 2326.39,2054.00 2326.39,2054.00
             2325.83,2061.92 2334.26,2078.40 2337.58,2086.00
             2347.40,2108.53 2369.09,2144.89 2382.69,2166.00
             2382.69,2166.00 2398.13,2188.00 2398.13,2188.00
             2400.05,2190.53 2404.03,2195.80 2407.00,2196.83
             2410.25,2197.96 2412.63,2195.19 2414.54,2192.98
             2414.54,2192.98 2429.87,2173.00 2429.87,2173.00
             2451.06,2144.76 2473.27,2116.93 2492.05,2087.00
             2519.39,2043.44 2554.83,1971.72 2575.58,1924.00
             2575.58,1924.00 2601.75,1865.00 2601.75,1865.00
             2604.38,1859.73 2610.15,1846.78 2614.18,1843.43
             2617.85,1840.37 2635.36,1837.93 2641.00,1836.80
             2641.00,1836.80 2685.00,1827.79 2685.00,1827.79
             2693.24,1826.04 2702.73,1823.18 2711.00,1823.00
             2710.11,1832.80 2702.05,1846.25 2697.31,1855.00
             2697.31,1855.00 2665.28,1913.00 2665.28,1913.00
             2637.89,1961.19 2611.15,2009.76 2585.74,2059.00
             2585.74,2059.00 2564.26,2101.00 2564.26,2101.00
             2539.21,2152.75 2516.11,2206.03 2499.02,2261.00
             2474.51,2339.86 2458.75,2421.38 2446.73,2503.00
             2446.73,2503.00 2432.84,2604.00 2432.84,2604.00
             2432.84,2604.00 2428.91,2644.00 2428.91,2644.00
             2428.91,2644.00 2428.00,2654.00 2428.00,2654.00
             2427.91,2662.22 2428.01,2670.82 2422.89,2677.83
             2413.23,2691.06 2385.83,2695.09 2374.52,2681.91
             2374.52,2681.91 2348.99,2641.00 2348.99,2641.00
             2348.99,2641.00 2303.60,2564.00 2303.60,2564.00
             2303.60,2564.00 2284.68,2532.00 2284.68,2532.00
             2281.55,2527.03 2279.36,2521.79 2274.00,2519.00
             2271.79,2524.78 2266.50,2532.19 2263.30,2538.00
             2263.30,2538.00 2237.78,2585.00 2237.78,2585.00
             2237.78,2585.00 2228.22,2604.00 2228.22,2604.00
             2228.22,2604.00 2212.31,2635.00 2212.31,2635.00
             2212.31,2635.00 2191.13,2679.00 2191.13,2679.00
             2188.40,2683.78 2184.30,2690.10 2179.99,2693.47
             2171.89,2699.80 2154.41,2702.12 2146.04,2695.47
             2141.79,2692.10 2137.71,2685.59 2134.67,2681.00
             2134.67,2681.00 2118.40,2655.00 2118.40,2655.00
             2118.40,2655.00 2068.99,2571.00 2068.99,2571.00
             2068.99,2571.00 2050.85,2540.00 2050.85,2540.00
             2049.44,2537.54 2046.07,2530.20 2042.94,2530.20
             2039.75,2530.20 2035.32,2537.50 2033.69,2540.00
             2033.69,2540.00 2014.14,2574.00 2014.14,2574.00
             2014.14,2574.00 1960.15,2674.00 1960.15,2674.00
             1950.89,2690.13 1941.87,2705.49 1921.00,2704.99
             1916.06,2704.87 1911.01,2703.60 1907.09,2700.44
             1903.75,2697.75 1900.12,2691.76 1897.81,2688.00
             1897.81,2688.00 1883.69,2663.00 1883.69,2663.00
             1883.69,2663.00 1833.15,2568.00 1833.15,2568.00
             1833.15,2568.00 1818.66,2544.00 1818.66,2544.00
             1815.39,2539.20 1813.36,2535.59 1808.00,2533.00
             1806.65,2541.74 1804.17,2544.53 1800.25,2552.00
             1800.25,2552.00 1781.00,2586.00 1781.00,2586.00
             1781.00,2586.00 1738.60,2659.00 1738.60,2659.00
             1731.54,2670.92 1721.55,2689.49 1711.96,2698.96
             1698.89,2711.86 1673.78,2711.45 1662.64,2696.00
             1655.61,2686.26 1655.13,2671.55 1655.00,2660.00
             1655.00,2660.00 1654.09,2650.00 1654.09,2650.00
             1654.09,2650.00 1648.28,2598.00 1648.28,2598.00
             1648.28,2598.00 1635.08,2510.00 1635.08,2510.00
             1623.28,2438.72 1608.68,2367.90 1586.66,2299.00
             1568.03,2240.71 1542.77,2184.33 1514.74,2130.00
             1484.40,2071.20 1450.78,2014.22 1417.58,1957.00
             1417.58,1957.00 1383.72,1898.00 1383.72,1898.00
             1377.77,1887.53 1366.78,1867.82 1363.00,1857.00
             1372.15,1857.03 1381.01,1859.40 1390.00,1860.92
             1390.00,1860.92 1434.00,1867.58 1434.00,1867.58
             1440.08,1868.46 1456.58,1869.50 1460.82,1872.70
             1465.29,1876.08 1471.96,1891.33 1474.42,1897.00
             1474.42,1897.00 1497.26,1946.00 1497.26,1946.00
             1497.26,1946.00 1506.74,1964.00 1506.74,1964.00
             1506.74,1964.00 1539.69,2027.00 1539.69,2027.00
             1554.05,2053.55 1573.05,2088.34 1589.67,2113.00
             1608.42,2140.83 1630.94,2166.54 1652.73,2192.00
             1652.73,2192.00 1668.00,2210.00 1668.00,2210.00
             1669.47,2211.70 1672.57,2215.96 1674.95,2215.96
             1676.99,2215.96 1678.74,2213.43 1679.84,2211.99
             1679.84,2211.99 1688.29,2200.00 1688.29,2200.00
             1688.29,2200.00 1722.05,2150.00 1722.05,2150.00
             1733.06,2132.64 1742.84,2115.77 1751.30,2097.00
             1753.15,2092.91 1759.55,2079.70 1759.46,2076.00
             1759.38,2072.70 1754.86,2063.44 1753.30,2060.00
             1753.30,2060.00 1740.60,2030.00 1740.60,2030.00
             1728.59,1999.73 1719.35,1968.41 1710.85,1937.00
             1710.85,1937.00 1703.01,1906.00 1703.01,1906.00
             1702.44,1903.23 1701.16,1896.96 1703.01,1894.60
             1704.58,1892.62 1708.70,1893.00 1711.00,1893.00
             1711.00,1893.00 1729.00,1893.00 1729.00,1893.00
             1729.00,1893.00 1742.00,1894.00 1742.00,1894.00
             1742.00,1894.00 1758.00,1894.00 1758.00,1894.00
             1762.24,1894.07 1767.16,1894.90 1770.01,1898.41
             1772.75,1901.79 1774.25,1911.44 1775.37,1916.00
             1775.37,1916.00 1785.29,1953.00 1785.29,1953.00
             1794.62,1985.49 1810.73,2035.19 1825.26,2065.00
             1833.23,2081.36 1857.85,2119.74 1868.67,2136.00
             1868.67,2136.00 1901.79,2184.00 1901.79,2184.00
             1901.79,2184.00 1910.55,2194.89 1910.55,2194.89
             1911.77,2196.20 1913.13,2198.04 1915.12,2197.04
             1917.16,2196.01 1924.61,2184.58 1926.33,2182.00
             1926.33,2182.00 1950.00,2146.00 1950.00,2146.00
             1965.78,2119.76 1982.10,2090.55 1993.19,2062.00
             1997.47,2050.98 2003.98,2036.66 2004.00,2025.00
             2004.00,2025.00 2004.00,1975.00 2004.00,1975.00
             2004.00,1975.00 2004.00,1913.00 2004.00,1913.00
             2004.04,1909.76 2004.73,1898.98 2006.85,1896.85
             2009.22,1894.49 2021.39,1894.01 2025.00,1894.00
             2025.00,1894.00 2057.00,1894.00 2057.00,1894.00
             2059.77,1894.04 2066.30,1894.38 2068.49,1896.01
             2070.58,1897.56 2071.34,1901.55 2071.70,1904.00
             2072.75,1911.01 2072.97,1917.93 2073.00,1925.00
             2073.00,1925.00 2074.00,1939.00 2074.00,1939.00
             2074.00,1939.00 2074.00,1963.00 2074.00,1963.00
             2074.00,1996.00 2072.85,2022.50 2085.45,2054.00
             2097.38,2083.82 2121.07,2122.65 2138.69,2150.00
             2138.69,2150.00 2155.42,2175.00 2155.42,2175.00
             2159.05,2180.13 2164.81,2187.38 2167.00,2193.00
             2172.30,2188.83 2175.95,2182.47 2179.86,2177.00
             2179.86,2177.00 2204.00,2141.00 2204.00,2141.00
             2218.77,2118.83 2245.89,2074.53 2256.69,2051.00
             2266.37,2029.93 2273.23,2006.28 2279.58,1984.00
             2279.58,1984.00 2296.60,1913.00 2296.60,1913.00
             2297.94,1906.36 2301.67,1886.96 2306.39,1882.92
             2310.77,1879.17 2322.18,1879.32 2328.00,1878.91
             2328.00,1878.91 2376.00,1874.00 2376.00,1874.00 Z
           M 2043.00,2103.00
           C 2043.00,2103.00 2041.00,2103.00 2041.00,2103.00
             2029.56,2128.64 1994.09,2185.22 1977.95,2211.00
             1977.95,2211.00 1958.68,2242.00 1958.68,2242.00
             1956.79,2245.00 1950.89,2253.97 1950.55,2257.00
             1950.14,2260.51 1953.15,2264.15 1954.95,2267.00
             1954.95,2267.00 1968.05,2288.00 1968.05,2288.00
             1968.05,2288.00 2019.19,2369.00 2019.19,2369.00
             2019.19,2369.00 2035.01,2393.00 2035.01,2393.00
             2036.75,2395.34 2040.19,2400.29 2043.67,2398.83
             2045.86,2397.91 2048.91,2392.15 2050.20,2390.00
             2050.20,2390.00 2065.00,2365.00 2065.00,2365.00
             2065.00,2365.00 2111.00,2288.00 2111.00,2288.00
             2111.00,2288.00 2124.20,2266.00 2124.20,2266.00
             2125.63,2263.62 2129.71,2257.40 2130.03,2255.00
             2130.46,2251.82 2126.23,2244.90 2124.57,2242.00
             2124.57,2242.00 2106.81,2213.00 2106.81,2213.00
             2088.17,2182.92 2056.35,2133.99 2043.00,2103.00 Z
           M 2288.00,2119.00
           C 2288.00,2119.00 2286.00,2119.00 2286.00,2119.00
             2282.00,2127.98 2272.90,2141.26 2267.42,2150.00
             2267.42,2150.00 2229.00,2210.00 2229.00,2210.00
             2229.00,2210.00 2212.00,2237.00 2212.00,2237.00
             2210.14,2240.10 2205.28,2247.74 2204.84,2251.00
             2204.40,2254.40 2207.23,2258.96 2208.75,2262.00
             2208.75,2262.00 2222.22,2287.00 2222.22,2287.00
             2238.41,2317.48 2259.97,2355.46 2279.00,2384.00
             2284.31,2381.36 2285.81,2377.79 2289.00,2373.00
             2289.00,2373.00 2301.34,2354.00 2301.34,2354.00
             2301.34,2354.00 2348.67,2283.00 2348.67,2283.00
             2348.67,2283.00 2363.14,2262.00 2363.14,2262.00
             2365.03,2259.35 2368.50,2255.45 2367.89,2252.00
             2367.46,2249.61 2362.28,2242.42 2360.67,2240.00
             2360.67,2240.00 2342.81,2213.00 2342.81,2213.00
             2342.81,2213.00 2311.42,2162.00 2311.42,2162.00
             2311.42,2162.00 2288.00,2119.00 2288.00,2119.00 Z
           M 1798.00,2139.00
           C 1798.00,2139.00 1796.00,2139.00 1796.00,2139.00
             1796.00,2139.00 1776.99,2172.00 1776.99,2172.00
             1776.99,2172.00 1737.67,2235.00 1737.67,2235.00
             1737.67,2235.00 1722.42,2259.00 1722.42,2259.00
             1720.37,2262.32 1716.93,2266.96 1717.75,2271.00
             1718.36,2274.02 1722.80,2280.23 1724.67,2283.00
             1724.67,2283.00 1742.00,2308.00 1742.00,2308.00
             1742.00,2308.00 1783.66,2369.00 1783.66,2369.00
             1788.99,2376.84 1801.24,2396.18 1807.00,2402.00
             1807.00,2402.00 1816.31,2384.00 1816.31,2384.00
             1816.31,2384.00 1844.75,2329.00 1844.75,2329.00
             1844.75,2329.00 1858.31,2302.00 1858.31,2302.00
             1858.31,2302.00 1873.25,2273.00 1873.25,2273.00
             1873.25,2273.00 1878.30,2261.00 1878.30,2261.00
             1878.30,2261.00 1872.00,2250.00 1872.00,2250.00
             1872.00,2250.00 1855.42,2226.00 1855.42,2226.00
             1855.42,2226.00 1819.69,2173.00 1819.69,2173.00
             1819.69,2173.00 1798.00,2139.00 1798.00,2139.00 Z
           M 2423.00,2289.00
           C 2414.99,2292.79 2408.70,2302.08 2403.35,2309.00
             2403.35,2309.00 2369.67,2356.00 2369.67,2356.00
             2369.67,2356.00 2327.00,2422.00 2327.00,2422.00
             2327.00,2422.00 2315.75,2443.00 2315.75,2443.00
             2314.50,2445.50 2311.80,2450.40 2311.49,2453.00
             2311.06,2456.71 2313.43,2459.92 2315.14,2463.00
             2315.14,2463.00 2324.77,2481.00 2324.77,2481.00
             2324.77,2481.00 2357.20,2537.00 2357.20,2537.00
             2361.62,2544.37 2368.62,2557.98 2375.00,2563.00
             2377.87,2556.11 2379.13,2536.53 2380.15,2528.00
             2380.15,2528.00 2389.42,2466.00 2389.42,2466.00
             2389.42,2466.00 2411.80,2339.00 2411.80,2339.00
             2411.80,2339.00 2417.88,2310.00 2417.88,2310.00
             2417.88,2310.00 2423.00,2289.00 2423.00,2289.00 Z
           M 1654.00,2290.00
           C 1652.20,2294.93 1656.02,2305.66 1657.37,2311.00
             1657.37,2311.00 1670.63,2363.00 1670.63,2363.00
             1670.63,2363.00 1682.21,2416.00 1682.21,2416.00
             1682.21,2416.00 1701.58,2522.00 1701.58,2522.00
             1701.58,2522.00 1708.00,2568.00 1708.00,2568.00
             1708.80,2573.87 1710.00,2586.45 1713.00,2591.00
             1713.00,2591.00 1732.14,2557.00 1732.14,2557.00
             1732.14,2557.00 1760.25,2503.00 1760.25,2503.00
             1760.25,2503.00 1771.25,2481.00 1771.25,2481.00
             1772.50,2478.49 1775.82,2472.52 1775.97,2470.00
             1776.18,2466.55 1771.27,2459.16 1769.40,2456.00
             1769.40,2456.00 1748.58,2423.00 1748.58,2423.00
             1748.58,2423.00 1694.72,2344.00 1694.72,2344.00
             1684.78,2329.80 1665.22,2301.47 1654.00,2290.00 Z
           M 2166.00,2311.00
           C 2166.00,2311.00 2142.40,2348.00 2142.40,2348.00
             2142.40,2348.00 2099.40,2421.00 2099.40,2421.00
             2099.40,2421.00 2082.77,2450.00 2082.77,2450.00
             2081.10,2453.07 2077.39,2458.67 2077.43,2462.00
             2077.48,2465.36 2081.40,2471.01 2083.20,2474.00
             2083.20,2474.00 2097.40,2498.00 2097.40,2498.00
             2097.40,2498.00 2139.20,2568.00 2139.20,2568.00
             2143.87,2575.78 2155.01,2595.93 2161.00,2601.00
             2161.00,2601.00 2183.86,2560.00 2183.86,2560.00
             2183.86,2560.00 2220.76,2492.00 2220.76,2492.00
             2220.76,2492.00 2235.74,2464.00 2235.74,2464.00
             2235.74,2464.00 2241.09,2451.00 2241.09,2451.00
             2241.09,2451.00 2235.00,2437.00 2235.00,2437.00
             2235.00,2437.00 2222.25,2413.00 2222.25,2413.00
             2222.25,2413.00 2196.31,2365.00 2196.31,2365.00
             2196.31,2365.00 2166.00,2311.00 2166.00,2311.00 Z
           M 1918.00,2321.00
           C 1911.63,2326.41 1901.50,2347.63 1897.24,2356.00
             1897.24,2356.00 1877.26,2394.00 1877.26,2394.00
             1877.26,2394.00 1861.22,2426.00 1861.22,2426.00
             1861.22,2426.00 1848.25,2451.00 1848.25,2451.00
             1846.85,2453.79 1843.75,2458.97 1844.08,2462.00
             1844.32,2464.17 1846.71,2468.00 1847.85,2470.00
             1847.85,2470.00 1857.00,2486.00 1857.00,2486.00
             1857.00,2486.00 1888.23,2541.00 1888.23,2541.00
             1888.23,2541.00 1912.22,2584.00 1912.22,2584.00
             1916.18,2591.46 1920.06,2601.21 1928.00,2605.00
             1928.00,2605.00 1945.58,2575.00 1945.58,2575.00
             1945.58,2575.00 1984.76,2502.00 1984.76,2502.00
             1984.76,2502.00 1998.75,2475.00 1998.75,2475.00
             2000.35,2471.81 2004.26,2464.32 2004.41,2461.00
             2004.57,2457.44 2000.96,2452.15 1999.15,2449.00
             1999.15,2449.00 1984.00,2424.00 1984.00,2424.00
             1984.00,2424.00 1946.81,2364.00 1946.81,2364.00
             1939.16,2351.51 1927.44,2331.30 1918.00,2321.00 Z" />
</svg>
