<?xml version="1.0" encoding="UTF-8"?>
<svg xmlns="http://www.w3.org/2000/svg" xmlns:xlink="http://www.w3.org/1999/xlink" width="px" height="px" viewBox="0 0 568 640" version="1.1">
<g id="surface1">
<path style="fill-rule:nonzero;fill:rgb(0%,0%,0%);fill-opacity:1;stroke-width:1;stroke-linecap:butt;stroke-linejoin:miter;stroke:rgb(0%,0%,0%);stroke-opacity:1;stroke-miterlimit:4;" d="M 406.002513 952.9995 C 376.472731 982.529282 346.880452 1012.660597 320.42083 1045.002739 C 309.890103 1057.869287 307.023058 1072.610742 294.703358 1087.000651 C 287.227167 1095.72678 277.462028 1104.202921 267.00161 1109.108927 C 243.260603 1120.272435 214.707335 1115.413301 192.997477 1101.937409 C 177.123266 1092.078524 153.546313 1067.86879 140.007923 1054.002292 C 140.007923 1054.002292 123.852476 1036.003187 123.852476 1036.003187 C 109.071961 1019.207146 94.283634 1001.559586 94.002398 977.998258 C 93.869592 966.467581 93.439926 962.272477 97.033497 950.9996 C 106.556461 921.047964 135.961249 909.337608 157.999216 890.572916 C 196.286376 857.95735 231.44869 821.55291 267.00161 785.999989 C 267.00161 785.999989 305.726248 744.002077 305.726248 744.002077 C 312.866518 735.549372 319.56931 727.768509 318.913092 716.003469 C 317.749088 695.488864 312.100931 672.396262 308.421426 651.998838 C 305.320018 634.757508 300.031218 601.751336 299.99997 585.002169 C 299.99997 585.002169 299.00002 566.003113 299.00002 566.003113 C 299.00002 566.003113 299.99997 540.996544 299.99997 540.996544 C 300.367139 509.990273 314.866418 472.093719 331.060926 446.001266 C 342.763469 427.158453 362.489051 408.182834 377.957032 391.996138 C 377.957032 391.996138 444.000624 323.999519 444.000624 323.999519 C 444.000624 323.999519 533.99615 234.043053 533.99615 234.043053 C 533.99615 234.043053 543.003515 225.957517 543.003515 225.957517 C 543.003515 225.957517 582.001576 189.279653 582.001576 189.279653 C 603.10209 171.17899 634.741142 152.047129 660.997649 142.688219 C 690.769607 132.087184 710.893606 130.641943 742.001435 131.0013 C 771.789017 131.352845 813.513505 145.320901 837.996663 162.031008 C 851.839725 171.468039 863.792256 183.537751 876.002586 194.912186 C 876.002586 194.912186 902.001294 219.043799 902.001294 219.043799 C 902.001294 219.043799 930.999852 248.003296 930.999852 248.003296 C 930.999852 248.003296 942.999256 259.010562 942.999256 259.010562 C 942.999256 259.010562 974.036775 291.001159 974.036775 291.001159 C 974.036775 291.001159 1009.08972 326.999369 1009.08972 326.999369 C 1022.057825 340.920552 1036.189935 354.216766 1046.97065 369.997232 C 1064.336974 395.417843 1078.953435 436.017388 1079.000307 467.000222 C 1079.000307 467.000222 1079.000307 499.998582 1079.000307 499.998582 C 1078.648762 529.426807 1065.032252 567.206178 1049.579895 592.001821 C 1038.736684 609.368145 1007.23825 641.100943 992.043693 656.99859 C 992.043693 656.99859 957.959449 692.9968 957.959449 692.9968 C 957.959449 692.9968 899.001443 752.00168 899.001443 752.00168 C 899.001443 752.00168 839.996563 810.959686 839.996563 810.959686 C 839.996563 810.959686 807.998154 841.036316 807.998154 841.036316 C 791.670841 856.652727 777.35124 869.83176 757.000689 880.237492 C 750.696315 883.471707 747.008998 886.346564 740.001534 888.002731 C 746.493399 901.470812 754.711741 913.712391 759.656807 928.000743 C 770.281279 958.702342 769.367262 982.318355 769.000093 1013.996468 C 768.781354 1032.76116 761.609835 1060.228545 753.250876 1077.001148 C 738.806281 1105.952834 723.682033 1126.420567 697.003672 1145.568052 C 671.372133 1163.973387 634.819263 1177.949255 603.000532 1177.996128 C 603.000532 1177.996128 567.002322 1177.996128 567.002322 1177.996128 C 541.003614 1177.691456 511.372275 1167.379468 488.998387 1154.567605 C 444.961514 1129.357921 414.408345 1084.742951 405.416604 1035.003236 C 402.010524 1016.11355 402.776111 995.2474 403.002662 975.998357 C 403.072971 970.3502 404.611957 958.507039 406.002513 952.9995 Z M 406.002513 952.9995 " transform="matrix(0.500025,0,0,0.500025,0.000370897,0.000000000000045475)"/>
</g>
</svg>
