<?xml version="1.0" encoding="UTF-8"?>
<svg xmlns="http://www.w3.org/2000/svg" xmlns:xlink="http://www.w3.org/1999/xlink" width="px" height="px" viewBox="0 0 568 640" version="1.1">
<g id="surface1">
<path style="fill-rule:nonzero;fill:rgb(0%,0%,0%);fill-opacity:1;stroke-width:1;stroke-linecap:butt;stroke-linejoin:miter;stroke:rgb(0%,0%,0%);stroke-opacity:1;stroke-miterlimit:4;" d="M 501.997741 856.9574 C 494.849659 855.262171 494.693416 856.379303 487.998437 856.9574 C 481.733123 857.418314 472.616389 858.613567 466.999481 861.418115 C 459.327987 865.261674 436.836918 886.159073 430.00132 893.002483 C 430.00132 893.002483 415.002065 907.040847 415.002065 907.040847 C 415.002065 907.040847 384.003606 938.000246 384.003606 938.000246 C 384.003606 938.000246 373.957231 948.999699 373.957231 948.999699 C 373.957231 948.999699 356.036247 966.998804 356.036247 966.998804 C 356.036247 966.998804 333.912347 990.997611 333.912347 990.997611 C 333.912347 990.997611 298.656287 1031.003435 298.656287 1031.003435 C 288.563038 1043.909044 290.633248 1045.729266 283.571099 1058.002093 C 273.540348 1075.430914 259.806655 1088.313086 239.003002 1089.820824 C 224.980262 1090.836398 209.598214 1083.016474 198.997178 1074.548145 C 178.84193 1058.439571 154.679069 1032.956463 138.078332 1012.996518 C 124.696184 996.91138 114.032652 980.693436 121.360413 958.999202 C 127.258557 941.562569 145.921692 931.859926 159.999117 921.961981 C 159.999117 921.961981 174.998371 909.946953 174.998371 909.946953 C 174.998371 909.946953 221.003897 867.956853 221.003897 867.956853 C 221.003897 867.956853 244.002754 845.036117 244.002754 845.036117 C 244.002754 845.036117 268.993699 820.99825 268.993699 820.99825 C 268.993699 820.99825 279.008826 809.998796 279.008826 809.998796 C 279.008826 809.998796 303.171687 785.000039 303.171687 785.000039 C 315.069533 771.836631 335.513829 752.626649 341.451034 736.002475 C 344.591503 727.229474 344.09934 720.097016 343.997783 711.003718 C 343.833728 696.973165 335.99818 659.850011 333.248317 643.999236 C 330.123472 626.000131 325.029976 593.556431 324.998727 576.002616 C 324.998727 576.002616 324.998727 551.003859 324.998727 551.003859 C 325.053412 518.708589 337.888711 480.296436 356.442477 454.000869 C 365.988877 440.462479 391.596979 414.916874 403.963552 402.003453 C 403.963552 402.003453 498.99789 305.000463 498.99789 305.000463 C 498.99789 305.000463 541.003614 263.041611 541.003614 263.041611 C 541.003614 263.041611 550.003167 254.963888 550.003167 254.963888 C 567.463236 238.261593 584.079598 220.559348 603.000532 205.450724 C 636.069201 179.030163 675.387559 159.890489 718.002628 156.906262 C 718.002628 156.906262 728.002131 156.000058 728.002131 156.000058 C 758.649045 155.648513 796.186241 165.452713 821.997458 182.09251 C 832.02821 188.553127 852.722493 208.091218 862.003282 216.957965 C 862.003282 216.957965 916.000598 269.002253 916.000598 269.002253 C 916.000598 269.002253 975.958555 328.99927 975.958555 328.99927 C 975.958555 328.99927 984.036278 337.998823 984.036278 337.998823 C 996.316918 350.841934 1016.300299 370.817504 1025.971693 384.996486 C 1062.712055 438.853184 1062.930794 519.403867 1029.987119 575.002666 C 1022.721855 587.259869 1009.886556 600.462338 1000.090168 611.000876 C 1000.090168 611.000876 968.013637 644.999186 968.013637 644.999186 C 968.013637 644.999186 958.9594 654.998689 958.9594 654.998689 C 958.9594 654.998689 936.038664 677.997546 936.038664 677.997546 C 936.038664 677.997546 927.960941 686.997099 927.960941 686.997099 C 927.960941 686.997099 876.002586 739.002326 876.002586 739.002326 C 876.002586 739.002326 797.998651 815.092293 797.998651 815.092293 C 787.186689 825.162105 776.773144 835.763141 765.000292 844.762693 C 749.19639 856.84803 716.526139 873.058162 697.003672 877.003278 C 724.783541 905.033135 743.938839 942.89844 744.001335 982.998009 C 744.032584 1001.340847 744.727862 1014.691746 741.001485 1033.003336 C 732.509719 1074.610642 707.050047 1111.366628 669.997202 1132.568699 C 635.662971 1152.231784 610.250172 1153.442661 572.002073 1152.997371 C 556.752831 1152.817692 534.019586 1147.567953 519.996846 1141.568251 C 480.201949 1124.561284 449.273799 1092.320699 435.672913 1051.002441 C 431.946536 1039.690503 428.142037 1020.839878 428.001419 1008.996717 C 427.837365 994.997412 427.509256 980.896551 429.282606 966.998804 C 433.376152 934.930086 448.547273 904.181615 471.093027 881.04214 C 480.342567 871.542612 491.41233 864.730451 501.997741 856.9574 Z M 724.00233 195.279355 C 724.00233 195.279355 711.002976 196.287117 711.002976 196.287117 C 694.589729 198.302642 676.8328 204.02892 661.9976 211.262935 C 638.608137 222.660806 625.616596 235.566415 607.000333 252.909303 C 607.000333 252.909303 539.003714 318.999767 539.003714 318.999767 C 539.003714 318.999767 525.996548 330.999171 525.996548 330.999171 C 525.996548 330.999171 498.990078 358.997779 498.990078 358.997779 C 498.990078 358.997779 456.999978 401.003503 456.999978 401.003503 C 440.078944 417.916725 404.768199 453.383712 392.346942 471.999974 C 377.457057 494.326989 363.043711 530.887671 362.996838 558.003511 C 362.996838 558.003511 362.996838 576.002616 362.996838 576.002616 C 362.996838 576.002616 363.910855 586.002119 363.910855 586.002119 C 365.442029 606.90733 369.95743 627.460996 373.996291 647.999037 C 377.339875 664.99038 383.972358 702.793188 384.003606 719.00332 C 384.003606 719.00332 384.003606 733.002624 384.003606 733.002624 C 384.019231 743.08806 387.542493 744.681731 394.167164 752.00168 C 394.167164 752.00168 418.83 778.000387 418.83 778.000387 C 418.83 778.000387 448.828509 809.998796 448.828509 809.998796 C 453.726703 815.41259 456.851548 821.459164 464.99958 820.826383 C 464.99958 820.826383 485.998536 818.178077 485.998536 818.178077 C 485.998536 818.178077 492.998188 818.912416 492.998188 818.912416 C 508.458357 819.990487 523.793532 821.920079 539.003714 824.998051 C 570.041233 831.286801 615.382729 844.770505 645.998395 844.997057 C 666.942666 845.153299 695.113141 841.387861 714.002827 832.177381 C 728.127125 825.287099 746.337157 809.811306 758.00064 799.077464 C 758.00064 799.077464 802.998403 756.001481 802.998403 756.001481 C 802.998403 756.001481 930.999852 628.000031 930.999852 628.000031 C 930.999852 628.000031 944.999156 613.000777 944.999156 613.000777 C 944.999156 613.000777 974.146145 582.002318 974.146145 582.002318 C 985.028416 569.643557 997.262183 555.792683 1004.629004 540.996544 C 1010.956815 528.309675 1015.362846 509.146565 1016.0425 494.998831 C 1016.0425 494.998831 1016.909644 483.999377 1016.909644 483.999377 C 1015.628458 461.477059 1010.691203 438.907869 999.69175 419.002608 C 993.160824 407.190696 974.700805 387.551047 965.170028 376.996884 C 965.170028 376.996884 896.001592 305.000463 896.001592 305.000463 C 896.001592 305.000463 856.00358 265.041512 856.00358 265.041512 C 856.00358 265.041512 846.996215 256.963789 846.996215 256.963789 C 834.606206 245.112815 814.833752 226.043451 800.998502 216.747038 C 782.429113 204.271095 758.110009 197.458934 736.001733 195.912136 C 730.267643 195.513718 730.642625 194.693447 724.00233 195.279355 Z M 368.99654 787.99989 C 364.496764 797.718157 368.762177 802.553854 373.222892 810.998747 C 373.222892 810.998747 389.86269 842.997156 389.86269 842.997156 C 392.057894 846.973521 396.59673 856.99646 401.041822 858.051095 C 403.580758 858.652628 405.979076 857.113642 408.002413 855.777771 C 412.588123 852.746671 420.962707 847.121951 420.681471 840.997256 C 420.431483 835.442844 412.517814 827.083885 408.830497 822.99815 C 408.830497 822.99815 393.003159 806.998946 393.003159 806.998946 C 386.370676 800.452396 377.410184 791.757516 368.99654 787.99989 Z M 327.092373 822.201315 C 318.436553 825.232414 320.86612 837.122448 322.631657 843.997106 C 326.022114 857.246448 335.576326 878.050101 342.427548 890.002632 C 345.786756 895.869528 349.380328 902.767622 356.997136 903.189476 C 368.246577 903.822257 367.090385 890.049505 364.379582 883.00298 C 360.207914 872.136333 346.411725 847.207884 339.951109 836.997454 C 336.677834 831.849273 333.131135 824.177779 327.092373 822.201315 Z M 534.9961 865.386668 C 520.942112 869.566148 504.060138 882.237393 492.998188 891.729109 C 471.093027 910.517237 455.250065 939.133002 448.367594 966.998804 C 446.812984 973.326615 443.828757 989.91954 444.102181 995.997363 C 446.891105 1059.228594 493.701278 1116.483561 555.002918 1131.873421 C 575.306597 1136.966917 586.298238 1138.263728 607.000333 1134.20143 C 662.59132 1123.28791 708.971827 1081.368119 722.869573 1026.003684 C 727.127174 1009.027965 729.080202 997.442603 726.252218 979.998158 C 721.182157 948.796584 709.807723 925.946158 689.269681 902.002035 C 684.808966 896.799169 672.067411 884.276354 665.997401 881.846787 C 663.489713 880.846837 660.646104 881.010891 657.997798 881.003079 C 650.748159 880.987455 628.663319 880.19062 623.108908 882.721744 C 617.64043 885.22162 620.45279 890.080753 612.90629 896.072643 C 602.078703 904.68159 585.282663 906.767423 572.002073 904.712838 C 561.932261 903.142604 547.120498 895.588292 550.573451 883.00298 C 552.299928 876.722042 559.690185 873.38627 557.830903 869.433342 C 556.963758 867.558435 553.807665 866.863157 552.003067 866.433491 C 546.159608 865.027311 540.972366 864.582021 534.9961 865.386668 Z M 281.008726 867.90998 C 272.509149 871.511364 273.321609 880.432795 275.126206 888.002731 C 278.563535 902.306708 288.57085 925.282128 296.007981 938.000246 C 298.359426 942.007859 305.093467 954.140069 309.999473 954.25725 C 311.890004 954.296311 313.210251 953.210427 314.358631 951.85112 C 319.31151 946.062345 318.006887 939.586105 315.98355 933.000494 C 310.897866 916.610684 302.031119 899.322481 294.242444 884.00293 C 291.391023 878.393834 287.766203 869.066173 281.008726 867.90998 Z M 498.99789 906.548684 C 512.106613 904.306608 517.426661 913.040549 516.957935 925.000892 C 516.231408 943.570281 500.169707 964.670795 481.998735 969.24088 C 466.351075 973.178185 467.202595 957.202416 468.92126 946.999798 C 471.780493 930.016268 481.842493 912.399956 498.99789 906.548684 Z M 660.997649 906.517436 C 681.418509 905.040947 699.55042 932.563016 699.980086 951.007412 C 700.136329 958.163306 697.652077 970.256455 688.996257 971.576702 C 685.793292 972.068865 676.87186 967.819076 673.997003 966.053539 C 659.66959 957.163356 650.920025 938.508033 650.998146 922.001041 C 651.037207 914.001439 652.552757 908.837633 660.997649 906.517436 Z M 239.003002 909.001687 C 232.979864 911.853108 222.910052 922.571325 218.668075 928.000743 C 216.840041 930.336564 214.066742 933.852015 214.449535 937.000296 C 214.918262 940.929788 223.027234 948.093494 226.003648 950.991788 C 226.003648 950.991788 251.002406 972.748518 251.002406 972.748518 C 256.322454 977.19361 261.580005 982.26367 268.001561 984.99791 C 268.001561 984.99791 258.002058 956.999301 258.002058 956.999301 C 258.002058 956.999301 239.003002 909.001687 239.003002 909.001687 Z M 576.001874 953.468227 C 589.899621 951.523011 603.852052 954.577547 613.820307 965.092649 C 634.108361 986.482211 627.163394 1028.862916 591.001129 1035.292284 C 585.727953 1036.339107 579.251713 1036.23755 574.001974 1035.292284 C 558.049642 1032.003385 546.362723 1020.027418 543.230066 1003.996965 C 542.83946 1000.559636 542.956642 995.591133 543.230066 991.997562 C 543.073824 986.607205 544.276889 981.919938 546.518965 976.998307 C 551.721831 965.561376 563.877477 956.319648 576.001874 953.468227 Z M 170.99857 961.428769 C 168.826803 962.092798 167.959659 962.272477 166.022255 963.647408 C 154.788438 971.600138 162.139636 982.060556 168.748682 989.997661 C 178.326331 1001.489277 207.738931 1028.050457 219.996134 1037.581233 C 225.277122 1041.682592 235.987527 1049.768127 242.963743 1048.838486 C 247.080726 1048.291638 248.361912 1044.737127 248.611899 1041.002938 C 249.049378 1034.487637 243.479342 1027.706724 239.573286 1023.003833 C 230.370619 1011.926258 203.731318 984.162014 192.997477 974.717171 C 186.747787 969.217444 180.052808 961.069412 170.99857 961.428769 Z M 479.998834 1025.76932 C 498.372921 1025.902126 514.231508 1046.088623 517.082928 1063.001844 C 518.60629 1072.079518 516.778256 1087.88342 504.997592 1088.88337 C 499.14632 1089.383345 493.599721 1086.211628 488.998387 1082.96179 C 475.342816 1073.313832 468.92126 1059.369212 468.999381 1043.002839 C 469.038442 1034.753249 470.73367 1027.589542 479.998834 1025.76932 Z M 683.996506 1026.47241 C 697.027108 1024.956861 700.050395 1031.65184 700.003523 1043.002839 C 699.917589 1060.541029 683.090301 1086.602234 664.99745 1089.672394 C 652.052781 1091.883221 651.990284 1082.2587 651.998097 1073.001347 C 652.029345 1051.236804 660.919528 1031.573719 683.996506 1026.47241 Z M 574.001974 1086.438179 C 586.89977 1084.789824 611.789158 1086.672543 618.296647 1100.007817 C 619.632518 1102.742056 619.570021 1105.093502 619.04661 1107.999607 C 616.702976 1121.053646 598.227332 1125.959652 587.001328 1127.568947 C 576.697152 1129.053248 564.010283 1126.787736 556.088802 1119.670902 C 546.151796 1110.741659 548.503241 1096.922033 560.00267 1090.648908 C 564.377452 1088.258401 569.158465 1087.32876 574.001974 1086.438179 Z M 574.001974 1086.438179 " transform="matrix(0.500025,0,0,0.500025,0.000370897,0.000000000000045475)"/>
</g>
</svg>
